<svg xmlns="http://www.w3.org/2000/svg" xmlns:xlink="http://www.w3.org/1999/xlink" viewBox="0 0 37 44"><defs><style>.cls-1{fill:url(#linear-gradient);}</style><linearGradient id="linear-gradient" x1="18.5" y1="44" x2="18.5" gradientUnits="userSpaceOnUse"><stop offset="0" stop-color="#fff" stop-opacity="0"/><stop offset="0.56" stop-color="#fff"/></linearGradient></defs><title>atm</title><g id="Layer_2" data-name="Layer 2"><g id="Layer_1-2" data-name="Layer 1"><path class="cls-1" d="M33,0H4A4,4,0,0,0,0,4V40a4,4,0,0,0,4,4H33a4,4,0,0,0,4-4V4A4,4,0,0,0,33,0ZM14,39a2,2,0,0,1-2,2H6a2,2,0,0,1-2-2V29a2,2,0,0,1,2-2h6a2,2,0,0,1,2,2ZM13,25.5H6a1.5,1.5,0,0,1,0-3h7a1.5,1.5,0,0,1,0,3ZM19,39a2,2,0,1,1,2-2A2,2,0,0,1,19,39Zm0-6a2,2,0,1,1,2-2A2,2,0,0,1,19,33Zm0-6a2,2,0,1,1,2-2A2,2,0,0,1,19,27Zm6,12a2,2,0,1,1,2-2A2,2,0,0,1,25,39Zm0-6a2,2,0,1,1,2-2A2,2,0,0,1,25,33Zm0-6a2,2,0,1,1,2-2A2,2,0,0,1,25,27Zm6,12a2,2,0,1,1,2-2A2,2,0,0,1,31,39Zm0-6a2,2,0,1,1,2-2A2,2,0,0,1,31,33Zm0-6a2,2,0,1,1,2-2A2,2,0,0,1,31,27Zm2-12a2,2,0,0,1-2,2H6a2,2,0,0,1-2-2V5A2,2,0,0,1,6,3H31a2,2,0,0,1,2,2Z"/></g></g></svg>