<svg xmlns="http://www.w3.org/2000/svg" width="77" height="85" viewBox="0 0 77 85">
    <defs>
        <linearGradient id="a" x1="50%" x2="50%" y1="32.207%" y2="87.157%">
            <stop offset="0%" stop-color="#FFAD00"/>
            <stop offset="100%" stop-color="#C500FF" stop-opacity="0"/>
        </linearGradient>
    </defs>
    <g fill="url(#a)" fill-rule="evenodd" transform="translate(-602 -901)">
        <path d="M619.5 943c1.933 0 3.5-9.402 3.5-21 0-3.945-.181-7.636-.497-10.79-.611-6.117-1.728-10.21-3.003-10.21-1.933 0-3.5 9.402-3.5 21s1.567 21 3.5 21zM605.5 960c1.933 0 3.5-9.402 3.5-21 0-3.945-.181-7.636-.497-10.79-.611-6.117-1.728-10.21-3.003-10.21-1.933 0-3.5 9.402-3.5 21s1.567 21 3.5 21zM631.5 972c1.933 0 3.5-9.402 3.5-21 0-3.945-.181-7.636-.497-10.79-.611-6.117-1.728-10.21-3.003-10.21-1.933 0-3.5 9.402-3.5 21s1.567 21 3.5 21zM649.5 960c1.933 0 3.5-9.402 3.5-21 0-3.945-.181-7.636-.497-10.79-.611-6.117-1.728-10.21-3.003-10.21-1.933 0-3.5 9.402-3.5 21s1.567 21 3.5 21zM664.5 943c1.933 0 3.5-9.402 3.5-21 0-3.945-.181-7.636-.497-10.79-.611-6.117-1.728-10.21-3.003-10.21-1.933 0-3.5 9.402-3.5 21s1.567 21 3.5 21zM675.5 972c1.933 0 3.5-9.402 3.5-21 0-3.945-.181-7.636-.497-10.79-.611-6.117-1.728-10.21-3.003-10.21-1.933 0-3.5 9.402-3.5 21s1.567 21 3.5 21zM657.5 991c1.933 0 3.5-9.402 3.5-21 0-3.945-.181-7.636-.497-10.79-.611-6.117-1.728-10.21-3.003-10.21-1.933 0-3.5 9.402-3.5 21s1.567 21 3.5 21zM614.5 991c1.933 0 3.5-9.402 3.5-21 0-3.945-.181-7.636-.497-10.79-.611-6.117-1.728-10.21-3.003-10.21-1.933 0-3.5 9.402-3.5 21s1.567 21 3.5 21z"/>
    </g>
</svg>
