<?xml version="1.0" encoding="utf-8"?>
<!-- Generator: Adobe Illustrator 16.0.0, SVG Export Plug-In . SVG Version: 6.00 Build 0)  -->
<!DOCTYPE svg PUBLIC "-//W3C//DTD SVG 1.1//EN" "http://www.w3.org/Graphics/SVG/1.1/DTD/svg11.dtd">
<svg version="1.1" id="Layer_1" xmlns="http://www.w3.org/2000/svg" xmlns:xlink="http://www.w3.org/1999/xlink" x="0px" y="0px"
	 width="612px" height="191px" viewBox="0 120.5 612 191" enable-background="new 0 120.5 612 191" xml:space="preserve">
<g>
	<path d="M126.003,264.119c0,1.571-1.397,2.969-2.969,2.969c-0.874,0-1.572-0.349-2.096-0.873l-13.272,9.78
		c0.349,0.698,0.524,1.572,0.524,2.444c0,2.271-1.921,4.366-4.366,4.366c-2.096,0-4.017-1.746-4.192-3.842l-47.852,2.445
		c0,0.698-0.699,1.396-1.572,1.396s-1.746-0.698-1.746-1.746c0-0.873,0.698-1.396,1.397-1.572l1.222-28.117
		c-1.747-0.175-2.969-1.572-2.969-3.318c0-1.746,1.397-3.144,2.969-3.318l-0.174-43.137c-1.397-0.174-2.445-1.397-2.445-2.794
		c0-1.396,1.047-2.62,2.445-2.794l-0.175-38.421c-1.397-0.175-2.445-1.397-2.445-2.794c0-1.572,1.223-2.969,2.794-2.969
		c1.571,0,2.794,1.048,2.969,2.619l37.199-0.524c0.175-0.873,1.048-1.571,1.921-1.571c1.048,0,1.921,0.873,1.921,1.921
		c0,0.174,0,0.524-0.175,0.698l19.036,14.146c1.223-1.571,3.144-2.445,5.065-2.445c3.842,0,6.811,2.969,6.811,6.637
		c0,3.493-2.794,6.287-6.113,6.461l0.524,20.957c0.524,0.175,0.873,0.525,0.873,1.049c0,0.523-0.349,0.873-0.873,1.047l2.969,58.331
		C124.781,261.325,126.003,262.547,126.003,264.119z M51.78,251.37l-1.048,26.721l6.986-26.371l-3.318-1.746
		C53.701,250.846,52.828,251.37,51.78,251.37z M51.431,280.011l25.847-15.019c-0.175-0.35-0.175-0.874-0.175-1.398
		c0-0.523,0-0.873,0.175-1.396l-18.862-10.129l-7.335,27.594C51.256,279.663,51.256,279.836,51.431,280.011z M51.431,158.11
		l0.174,37.897c0.524,0.174,1.048,0.349,1.572,0.698l5.239-4.541L51.431,158.11z M51.605,201.596l0.175,43.137
		c0.524,0,0.873,0.175,1.222,0.175l9.431-15.718c-1.396-1.048-2.445-2.795-2.445-4.715c0-1.922,1.048-3.668,2.62-4.541
		l-10.304-18.512C52.129,201.422,51.955,201.596,51.605,201.596z M51.78,280.709l47.852-2.445c0-0.697,0.175-1.396,0.35-1.92
		L83.216,265.69c-0.698,0.873-1.572,1.397-2.794,1.397c-1.048,0-2.096-0.524-2.794-1.397L51.78,280.536V280.709z M52.129,157.586
		l6.811,34.055l17.29-15.019c-0.524-0.524-0.699-1.223-0.699-1.921c0-0.699,0.175-1.223,0.524-1.747l-22.703-16.242
		C53.002,157.062,52.479,157.412,52.129,157.586z M53.002,201.072l10.13,18.512c0.349-0.174,0.523-0.174,0.873-0.35l-5.414-26.371
		l-5.065,4.366c0.35,0.524,0.524,1.048,0.524,1.572C54.05,199.675,53.526,200.548,53.002,201.072z M54.924,248.051
		c0,0.523-0.174,0.873-0.35,1.223l3.318,1.746l5.763-21.307c-0.174,0-0.349-0.174-0.523-0.35l-9.606,15.894
		C54.4,245.956,54.924,247.004,54.924,248.051z M91.25,154.618l-37.199,0.524c0,0.349-0.174,0.698-0.349,1.048l22.704,16.241
		c0.524-0.698,1.572-1.222,2.445-1.222c0.699,0,1.223,0.174,1.747,0.524l11.177-16.242C91.599,155.316,91.424,154.966,91.25,154.618
		z M58.592,251.37l19.036,10.305c0.349-0.524,0.873-0.874,1.397-1.223l-11.701-30.563c-0.524,0-1.223,0.175-1.747,0.175
		c-0.35,0-0.874,0-1.223-0.175L58.592,251.37z M59.115,192.34l5.414,26.721c0.349,0,0.698,0,1.048,0c0.35,0,0.698,0,1.048,0
		l11.177-41.216c-0.524-0.174-0.874-0.349-1.223-0.698L59.115,192.34z M78.326,178.02l-11.002,41.215
		c1.396,0.524,2.445,1.397,3.144,2.62l6.636-2.969c0-0.175,0-0.524,0-0.699c0-1.396,0.873-2.445,2.27-2.619l-0.698-37.548
		C78.5,178.02,78.5,178.02,78.326,178.02z M67.848,229.54l11.701,30.736c0.174,0,0.349,0,0.524,0l-0.699-39.469
		c-0.873-0.175-1.571-0.523-1.921-1.223l-6.636,2.969c0.174,0.523,0.349,1.223,0.349,1.922
		C71.166,226.745,69.769,228.667,67.848,229.54z M91.948,176.972l-9.78-1.397c-0.349,1.222-1.397,2.27-2.794,2.445l0.699,37.374
		c1.222,0.174,2.445,1.397,2.445,2.793c0,1.397-1.048,2.445-2.445,2.62l0.698,39.295c1.223,0.174,2.271,0.873,2.794,1.921
		l7.859-3.317c0-0.176,0-0.35,0-0.35c0-1.049,0.699-1.747,1.571-1.922l2.096-49.948c-1.048-0.175-1.921-1.222-1.921-2.445
		c0-1.222,0.698-2.095,1.921-2.445l-1.747-23.053C92.647,178.369,92.123,177.845,91.948,176.972z M81.12,172.082
		c0.699,0.698,1.222,1.572,1.222,2.619c0,0,0,0,0,0.175l9.781,1.572c0.174-0.525,0.524-0.874,1.048-1.049l-0.35-19.385
		c-0.174,0-0.174,0-0.349,0L81.12,172.082z M101.554,274.772l-7.685-14.67c-0.174,0-0.35,0-0.698,0c-0.524,0-1.223-0.35-1.397-0.873
		l-8.034,3.318c0.175,0.349,0.175,0.697,0.175,1.047c0,0.524-0.175,1.049-0.349,1.572l16.765,10.653
		C100.68,275.295,101.204,274.946,101.554,274.772z M112.381,173.304c0-1.397,0.524-2.62,1.223-3.668l-19.036-13.971
		c-0.349,0.174-0.699,0.349-1.048,0.349l0.35,19.385c0.524,0.175,1.048,0.524,1.223,1.049l17.464-2.62
		C112.556,173.654,112.381,173.479,112.381,173.304z M93.695,256.434l13.622-32.483c-1.921-0.874-3.144-2.794-3.144-4.89
		c0-1.572,0.524-2.795,1.572-3.843l-8.732-9.081c-0.35,0.174-0.699,0.349-1.223,0.349L93.695,256.434z M95.092,176.972
		c0,0.699-0.524,1.223-1.048,1.397l1.747,23.228c0.35,0,0.699,0.175,1.048,0.35l17.988-23.577c-1.222-1.048-1.921-2.27-2.27-3.842
		L95.092,176.972z M103.999,274.073l4.89-49.598c-0.35,0-0.698-0.176-1.048-0.176l-13.622,32.484
		c0.524,0.35,0.873,0.873,0.873,1.572c0,0.523-0.175,1.047-0.699,1.396l7.685,14.67c0.698-0.35,1.223-0.35,1.747-0.35
		C103.999,274.073,103.999,274.073,103.999,274.073z M115.35,178.718l-17.988,23.577c0.35,0.524,0.699,1.048,0.699,1.746
		c0,0.699-0.175,1.223-0.524,1.572l8.557,9.081c1.048-0.873,2.271-1.222,3.667-1.222c0.175,0,0.524,0,0.698,0l6.986-33.881
		C116.748,179.417,116.049,179.242,115.35,178.718z M120.589,265.516c-0.349-0.35-0.523-0.873-0.523-1.397
		c0-1.223,0.698-2.271,1.747-2.62l-10.829-37.023c-0.349,0-0.873,0-1.222,0h-0.175l-4.89,49.598
		c1.048,0.176,1.921,0.699,2.445,1.397L120.589,265.516z M119.542,200.723l-0.524-20.782c-0.35,0-0.699-0.175-0.874-0.175
		l-6.985,33.881c0.349,0,0.698,0.175,1.048,0.35l6.811-11.352c-0.175-0.349-0.35-0.524-0.35-0.873
		C118.668,201.248,119.018,200.898,119.542,200.723z M115.35,219.061c0,2.27-1.572,4.365-3.667,5.064l10.828,37.024l-2.794-58.156
		l-6.811,11.352C114.302,215.394,115.35,217.14,115.35,219.061z"/>
	<path d="M202.672,280.011c0,0.873-0.873,1.746-1.746,1.746c-0.874,0-1.572-0.698-1.572-1.397l-49.948-0.873
		c-0.35,1.397-1.397,2.445-2.969,2.445s-2.969-1.223-2.969-2.969c0-1.396,1.222-2.619,2.62-2.795l-1.397-32.657
		c-0.524-0.175-1.047-0.699-1.047-1.396c0-0.699,0.523-1.223,1.047-1.396l1.921-42.09c-1.746-0.35-2.969-1.746-2.969-3.493
		c0-1.921,1.397-3.493,3.144-3.668l-1.223-35.801c-1.222,0-2.096-1.048-2.096-2.271c0-1.222,1.048-2.271,2.271-2.271
		c1.223,0,2.27,0.874,2.27,2.096l46.106,0.698c0.175-1.571,1.571-2.969,3.318-2.969c1.921,0,3.318,1.572,3.318,3.318
		s-1.223,3.144-2.795,3.493l1.224,16.591c0.698,0.175,1.222,0.699,1.222,1.571c0,0.699-0.698,1.397-1.571,1.397
		c-0.524,0-1.223-0.524-1.397-1.048l-19.734,1.397c0,2.095-1.572,3.667-3.493,4.017l1.747,19.735c0.873,0,1.571,0.698,1.746,1.572
		l15.368,1.397c0.35-1.223,1.397-2.271,2.795-2.271c1.746,0,2.969,1.397,2.969,2.969c0,1.397-1.048,2.62-2.271,2.794l1.048,16.766
		c0.698,0,1.223,0.699,1.223,1.398c0,0.872-0.699,1.396-1.397,1.396c-0.698,0-1.222-0.35-1.397-1.049l-18.687,1.049
		c0,2.096-1.746,3.667-3.668,4.017l0.874,22.005c1.571,0,2.794,1.397,2.794,2.969l17.115,2.271c0.523-1.922,2.096-3.318,4.191-3.318
		c2.271,0,4.191,1.746,4.191,4.191c0,1.92-1.572,3.666-3.493,4.016l1.747,14.67C201.974,278.439,202.672,279.138,202.672,280.011z
		 M147.311,198.627l-1.921,42.264c0.349,0,0.524,0.174,0.698,0.35l17.116-9.082l-14.845-33.706
		C148.009,198.627,147.66,198.627,147.311,198.627z M145.39,243.511l1.222,32.657c0.35,0,0.524,0,0.699,0.176l7.335-16.068
		c-2.095-1.047-3.493-3.143-3.493-5.763c0-1.571,0.698-2.969,1.572-4.19l-6.986-6.986
		C145.739,243.336,145.564,243.511,145.39,243.511z M146.263,155.666l1.222,35.801c0.35,0,0.699,0.175,1.048,0.175l14.845-27.419
		c-0.523-0.524-0.873-1.048-0.873-1.746c0-0.175,0-0.524,0.175-0.699l-15.019-6.985
		C147.311,155.316,146.787,155.666,146.263,155.666z M146.438,242.114c0,0.35,0,0.522-0.175,0.698l6.986,7.161
		c1.223-1.049,2.619-1.747,4.191-1.747c1.048,0,2.096,0.349,2.794,0.698l5.938-10.129l-2.62-5.938l-17.115,8.906
		C146.438,241.939,146.438,241.939,146.438,242.114z M193.941,154.618l-45.932-0.699v0.175l14.845,7.16
		c0.523-0.698,1.048-1.047,1.921-1.047s1.571,0.523,1.921,1.397l27.419-6.811L193.941,154.618z M155.169,260.452l-7.161,16.066
		c0.175,0.175,0.35,0.35,0.524,0.35l23.228-18.861c-0.35-0.35-0.523-0.873-0.523-1.572l-7.51-0.873
		c-0.523,3.145-3.144,5.414-6.287,5.414C156.741,260.975,155.868,260.8,155.169,260.452z M148.882,198.104l15.02,33.706l5.589-2.969
		c-0.175-0.349-0.35-1.047-0.35-1.571c0-1.222,0.523-2.271,1.222-2.97l-21.131-26.196
		C149.057,198.104,149.057,198.104,148.882,198.104z M173.857,259.403c-0.699,0-1.223-0.35-1.747-0.873l-23.228,18.861
		c0.174,0.35,0.35,0.699,0.35,0.873l22.005-2.794c0-1.048,0.873-1.921,1.921-2.095L173.857,259.403z M149.93,192.864l19.909-13.273
		c-0.349-0.524-0.523-1.223-0.523-1.921c0-1.397,0.698-2.794,1.746-3.493l-5.589-9.78c-0.174,0.174-0.523,0.174-0.698,0.174
		c-0.35,0-0.523,0-0.699,0l-14.844,27.419C149.581,192.166,149.755,192.515,149.93,192.864z M174.031,203.168v-0.174l-23.402-6.637
		c-0.35,0.524-0.524,0.873-0.874,1.223l21.132,26.371c0.699-0.524,1.572-0.698,2.271-0.698c0.175,0,0.175,0,0.175,0l1.921-18.338
		C174.555,204.74,174.031,204.041,174.031,203.168z M173.507,181.687c-1.397,0-2.445-0.524-3.318-1.572l-19.91,13.271
		c0.35,0.524,0.524,1.049,0.524,1.747c0,0.174,0,0.349,0,0.524l23.402,6.636c0.175-0.349,0.699-0.699,1.048-0.873L173.507,181.687z
		 M150.978,278.789l45.233,0.874l-20.783-3.494c-0.35,0.873-1.048,1.398-2.096,1.398c-0.873,0-1.746-0.525-1.922-1.398
		L150.978,278.789z M172.808,253.815l-6.287-14.321l-5.588,9.78c1.746,1.049,2.969,3.144,2.969,5.239c0,0.175-0.175,0.35-0.175,0.35
		l7.684,0.873C171.586,254.863,172.11,254.164,172.808,253.815z M164.076,232.508l2.445,5.414l4.191-7.335
		c-0.35-0.35-0.698-0.699-0.873-1.048L164.076,232.508z M194.115,155.49l-27.244,6.811c0,0,0,0,0,0.175
		c0,0.698-0.35,1.222-0.698,1.746l5.588,9.605c0.524-0.174,1.048-0.35,1.747-0.35c1.048,0,1.921,0.35,2.794,1.048l18.513-17.988
		C194.464,156.189,194.29,155.84,194.115,155.49z M173.857,253.465l-0.874-22.005c-0.698-0.175-1.223-0.35-1.572-0.524l-4.54,7.859
		l6.462,14.67C173.507,253.465,173.681,253.465,173.857,253.465z M177.349,257.133c-0.35,1.223-1.572,2.27-2.794,2.27l-0.698,13.973
		c0.349,0.174,0.872,0.349,1.048,0.697l20.083-12.574c-0.349-0.698-0.523-1.223-0.523-1.92c0-0.176,0-0.176,0-0.176L177.349,257.133
		z M174.031,223.252c0.698,0.174,1.397,0.523,1.922,0.873l9.954-9.78l-9.081-9.604c-0.175,0.174-0.524,0.174-0.873,0.174
		L174.031,223.252z M198.656,263.594c-1.397,0-2.62-0.523-3.318-1.571l-19.909,12.573c0,0.35,0.175,0.525,0.175,0.874l23.751,3.843
		c0.175-0.35,0.524-0.699,1.048-0.874L198.656,263.594z M177.349,226.745l18.687-1.047c0-0.176,0-0.35,0.176-0.524l-9.781-10.304
		l-9.954,9.779C176.826,225.173,177.174,226.047,177.349,226.745z M198.481,174.527l-1.223-16.766c-0.698,0-1.396-0.349-2.096-0.873
		l-18.512,18.163c0.523,0.524,0.873,1.222,0.873,1.921l19.909-1.397C197.608,175.051,197.957,174.701,198.481,174.527z
		 M193.067,205.089l-15.543-1.396c0,0.174,0,0.349-0.175,0.524l9.081,9.605l7.161-6.986
		C193.242,206.312,193.067,205.788,193.067,205.089z M196.91,224.649l-1.048-16.59c-0.699-0.175-1.223-0.35-1.747-0.699l-7.16,6.986
		l9.78,10.479C196.735,224.649,196.91,224.649,196.91,224.649z"/>
	<path d="M298.727,235.303l-1.049,24.973c0.699,0.176,1.398,0.874,1.398,1.747c0,1.222-0.875,2.096-1.922,2.096
		c-0.35,0-0.697-0.175-1.047-0.35l-11.352,11.526c0.523,0.524,0.872,1.223,0.872,2.096c0,1.747-1.571,3.318-3.317,3.318
		c-1.397,0-2.62-0.873-3.144-2.096l-17.814,4.715c0,0,0,0,0,0.176c0,1.047-0.872,1.921-1.921,1.921
		c-1.048,0-1.921-0.874-1.921-1.921c0-0.176,0-0.176,0-0.35l-18.163-5.588c-0.523,1.047-1.746,1.92-2.969,1.92
		c-1.746,0-3.318-1.396-3.318-3.143c0-1.049,0.524-1.922,1.397-2.62l-9.78-15.893c-0.35,0-0.523,0-0.873,0
		c-1.048,0-2.096-0.874-2.096-2.096c0-0.873,0.698-1.747,1.746-1.921l-1.746-34.404c-0.699,0-1.397-0.699-1.397-1.572
		c0-0.699,0.698-1.397,1.397-1.572l0.524-35.453c-1.048-0.174-1.922-1.222-1.922-2.27c0-1.223,1.048-2.271,2.271-2.271
		c0.175,0,0.35,0,0.524,0l4.54-10.478c-0.873-0.525-1.396-1.397-1.396-2.445c0-1.397,1.223-2.794,2.794-2.794
		c1.048,0,1.921,0.698,2.271,1.397l24.8-11.003c0-0.174-0.176-0.524-0.176-0.698c0-1.572,1.224-2.794,2.795-2.794
		c1.397,0,2.619,1.222,2.619,2.794l17.814,2.62c0.174-0.874,1.048-1.572,2.095-1.572c1.224,0,2.271,1.048,2.271,2.27
		c0,0.524-0.349,1.048-0.698,1.572l8.383,10.478c0.874-0.524,1.746-0.873,2.795-0.873c2.619,0,4.715,2.096,4.715,4.715
		c0,2.096-1.747,4.017-3.842,4.541l4.191,30.388c1.047,0,1.746,0.874,1.746,1.747c0,1.048-0.699,1.921-1.746,1.921
		c-1.049,0-1.748-0.699-1.922-1.572l-23.228-1.572c-0.349,1.747-1.921,3.144-3.667,3.144c-2.096,0-3.668-1.572-3.668-3.668
		c0-1.747,1.224-3.318,2.97-3.668l-1.572-24.624c-0.873-0.175-1.397-0.699-1.397-1.572c0-0.35,0-0.524,0.176-0.699l-4.891-4.541
		c-0.524,0.349-1.048,0.524-1.746,0.524c-0.524,0-0.874,0-1.223-0.175l-4.891,7.335c0.35,0.349,0.699,0.873,0.699,1.397
		c0,1.048-0.873,1.747-1.747,1.921l-2.095,26.896c2.095,0.349,3.842,2.27,3.842,4.541s-1.747,4.192-3.842,4.541l3.317,41.74
		c0.699,0,1.223,0.523,1.223,1.223c0,0.174-0.175,0.174-0.175,0.35l5.414,3.317c0.524-0.524,1.048-0.873,1.747-0.873
		c0.349,0,0.698,0.175,1.048,0.349l3.318-5.588c-0.35-0.35-0.524-0.873-0.524-1.223c0-0.873,0.698-1.572,1.396-1.746l0.176-20.957
		c-0.699-0.176-1.224-0.699-1.224-1.572c0-0.873,0.699-1.572,1.572-1.572s1.397,0.524,1.572,1.397l26.022,0.874
		c0.174-1.223,1.396-2.271,2.793-2.271c1.398,0,2.795,1.223,2.795,2.795C301.346,233.905,300.123,235.127,298.727,235.303z
		 M222.931,180.813l-0.524,35.627l13.448-23.228c-0.524-0.349-0.874-1.048-0.874-1.747c0-0.524,0.176-0.873,0.35-1.222
		l-11.177-9.955C223.804,180.465,223.28,180.639,222.931,180.813z M222.407,219.411l1.747,34.404c0.174,0,0.35,0,0.698,0.174
		l7.51-10.129c-1.571-1.223-2.445-3.143-2.445-5.239c0-2.271,1.048-4.191,2.62-5.414l-9.955-13.796H222.407z M223.629,217.838
		c0,0.523-0.175,0.873-0.523,1.048l9.954,13.796c1.048-0.523,2.097-1.047,3.493-1.047l0.35-37.898c-0.175,0-0.35-0.174-0.524-0.174
		l-13.272,23.228C223.455,216.965,223.629,217.489,223.629,217.838z M223.804,176.623c0.699,0.349,1.048,1.048,1.048,1.921
		c0,0.35-0.175,0.874-0.349,1.222l11.177,9.955c0.175-0.175,0.349-0.35,0.524-0.35l-6.812-23.228c0,0-0.175,0-0.35,0
		c-0.35,0-0.523,0-0.873,0L223.804,176.623z M234.981,273.375c0.35-0.176,0.699-0.176,1.048-0.176l0.176-15.718l-10.305-1.048
		c-0.175,0.35-0.349,0.699-0.698,1.048L234.981,273.375z M236.205,256.958l0.174-11.525c-1.222,0-2.445-0.35-3.492-1.049
		l-7.511,9.955c0.35,0.35,0.524,0.873,0.524,1.397L236.205,256.958z M230.091,165.969l6.812,23.229c0.174,0,0.174,0,0.349,0
		s0.175,0,0.35,0l6.287-20.608c-1.921-0.698-3.144-2.27-3.144-4.366l-8.906-0.349C231.663,164.747,230.964,165.62,230.091,165.969z
		 M231.663,162.651c0,0.174,0.176,0.35,0.176,0.524l8.906,0.35c0.35-2.445,2.271-4.192,4.716-4.192c1.222,0,2.27,0.35,3.143,1.048
		l8.034-8.557l-0.175-0.175L231.663,162.651z M236.903,257.657l-0.175,15.543c0.698,0,1.222,0.176,1.571,0.699l14.496-13.973
		c0-0.174,0-0.348,0-0.523L236.903,257.657z M236.903,256.958l15.893,1.748l0.174-0.176l-12.05-14.32
		c-1.048,0.698-2.445,1.223-3.843,1.223L236.903,256.958z M245.46,211.726c0-1.572,0.873-2.794,1.921-3.667l-9.256-14.496
		c-0.176,0-0.35,0.174-0.524,0.174l-0.35,37.898c0.874,0,1.572,0.174,2.271,0.523l8.208-16.591
		C246.508,214.87,245.46,213.472,245.46,211.726z M251.573,176.797l-4.191-8.208c-0.524,0.175-1.223,0.35-1.921,0.35
		c-0.35,0-0.699,0-1.048-0.174l-6.113,20.607c0.175,0.175,0.35,0.175,0.524,0.35l12.225-10.479
		c-0.174-0.174-0.349-0.524-0.349-0.873C250.7,177.67,251.048,177.146,251.573,176.797z M252.271,180.29
		c-0.35-0.174-0.523-0.349-0.873-0.524l-12.225,10.479c0.174,0.35,0.349,0.698,0.349,1.222c0,0.699-0.349,1.223-0.698,1.747
		l9.081,14.496c0.698-0.35,1.397-0.524,2.271-0.524L252.271,180.29z M260.13,264.468c0-0.35,0-0.699,0.174-0.874l-5.413-3.318
		c-0.175,0.176-0.524,0.35-0.874,0.35c-0.174,0-0.523-0.174-0.698-0.35l-14.495,13.973c0.174,0.174,0.174,0.348,0.35,0.348
		l20.957-9.43C260.13,264.993,260.13,264.643,260.13,264.468z M257.685,282.631c0.35-0.699,1.048-1.049,1.746-1.223l2.271-14.67
		c-0.523-0.176-0.873-0.524-1.222-1.049l-21.133,9.605c0.175,0.35,0.175,0.699,0.175,1.049c0,0.174,0,0.349,0,0.523L257.685,282.631
		z M250.175,216.266c-0.698,0-1.223-0.174-1.746-0.349l-8.208,16.591c2.095,1.223,3.492,3.492,3.492,6.112
		c0,1.921-0.873,3.843-2.271,5.065l12.051,14.32L250.175,216.266z M258.383,169.288c-0.523-0.524-0.873-1.223-0.873-2.096
		c0,0,0,0,0-0.174l-7.335-1.572c-0.349,1.222-1.048,2.271-2.096,2.794l4.017,8.208c0.175,0,0.35,0,0.523,0c0.35,0,0.699,0,0.874,0
		L258.383,169.288z M249.127,160.905c0.699,0.873,1.223,1.92,1.223,3.143c0,0.35,0,0.524,0,0.699l7.335,1.572
		c0.175-0.874,1.048-1.397,1.921-1.572l-1.048-11.875c-0.523,0-1.048-0.175-1.396-0.524L249.127,160.905z M261.352,150.95
		c-0.349,0.874-1.048,1.572-2.096,1.921l1.048,11.701c0.699,0.175,1.397,0.524,1.747,1.048l17.115-11.177
		c0-0.174-0.175-0.524-0.175-0.873L261.352,150.95z M278.992,277.915c0-0.174,0-0.348,0-0.523c0-0.523,0.175-1.047,0.349-1.571
		l-15.019-9.78c-0.35,0.523-1.049,0.873-1.921,0.873l-2.271,14.67c0.523,0.175,0.873,0.524,1.048,1.049L278.992,277.915z
		 M279.515,155.142l-17.114,11.002c0.174,0.35,0.349,0.699,0.349,1.048c0,0.699-0.175,1.048-0.523,1.572l5.064,4.541
		c0.175-0.174,0.524-0.35,0.873-0.35c0.175,0,0.35,0,0.524,0l11.177-17.639C279.69,155.142,279.69,155.142,279.515,155.142z
		 M263.972,262.721c0.524,0.35,0.873,1.048,0.873,1.747c0,0.349,0,0.698-0.175,0.872l15.02,9.955c0.175-0.174,0.35-0.35,0.524-0.523
		l-11.526-17.639c-0.175,0-0.35,0.174-0.699,0.174c-0.174,0-0.35-0.174-0.523-0.174L263.972,262.721z M268.513,232.858
		l-0.175,20.957c0.35,0,0.698,0.174,0.873,0.349l9.257-6.287c-0.524-0.872-0.699-1.746-0.699-2.619c0-1.222,0.35-2.445,1.048-3.318
		l-9.78-9.257C268.862,232.858,268.688,232.858,268.513,232.858z M268.688,176.099l1.571,24.624c0.873,0,1.746,0.35,2.271,0.874
		l6.112-6.461c-1.048-1.048-1.746-2.62-1.746-4.366s0.698-3.318,1.746-4.541l-9.605-10.305
		C268.862,175.923,268.688,176.099,268.688,176.099z M281.96,171.383l-0.873-15.543c-0.35,0-0.524-0.174-0.698-0.174l-11.178,17.639
		c0.175,0.174,0.35,0.35,0.35,0.524L281.96,171.383z M269.211,256.784l11.526,17.639c0.523-0.174,0.873-0.35,1.223-0.35l0.35-23.75
		c-1.397-0.176-2.62-0.874-3.493-1.922l-9.256,6.462c0.175,0.175,0.175,0.349,0.175,0.698S269.561,256.434,269.211,256.784z
		 M281.96,172.082l-12.225,2.445c0,0.349-0.175,0.698-0.35,0.873l9.78,10.479c1.048-0.873,2.271-1.397,3.492-1.572L281.96,172.082z
		 M295.758,232.682l-26.022-0.873c0,0.176-0.175,0.176-0.175,0.35l9.779,9.256c0.874-0.873,2.097-1.396,3.493-1.396
		s2.794,0.699,3.668,1.746l9.606-7.859C295.932,233.556,295.758,233.207,295.758,232.682z M297.504,205.089l-9.78-9.43
		c-1.048,1.047-2.62,1.571-4.366,1.571c-1.572,0-3.144-0.524-4.191-1.571l-6.112,6.287c0.523,0.698,0.872,1.397,0.872,2.271
		l23.228,1.572C297.154,205.613,297.328,205.264,297.504,205.089z M290.693,165.969l-8.383-10.479
		c-0.175,0.175-0.35,0.175-0.524,0.35l0.873,15.543l6.637-1.397c0-0.174,0-0.35,0-0.524
		C289.295,168.064,289.82,166.842,290.693,165.969z M289.47,170.685l-6.812,1.222l0.699,12.4c1.048,0,1.921,0.175,2.794,0.524
		l5.414-11.352C290.518,172.78,289.82,171.907,289.47,170.685z M284.406,274.772l11.176-11.527c-0.174-0.349-0.35-0.697-0.35-1.222
		c0-0.349,0.176-0.873,0.525-1.223l-9.956-11.526c-0.698,0.523-1.746,0.873-2.794,1.049l-0.35,23.75
		C283.358,274.249,283.881,274.422,284.406,274.772z M296.98,260.102l1.047-24.799c-0.523-0.176-1.047-0.35-1.396-0.874
		l-9.606,7.858c0.523,0.874,0.873,1.748,0.873,2.97c0,1.397-0.523,2.619-1.571,3.493l9.781,11.701
		C296.457,260.276,296.631,260.276,296.98,260.102z M294.186,174.002h-0.174c-0.7,0-1.223,0-1.748-0.349l-5.588,11.526
		c1.92,1.048,3.317,3.144,3.317,5.589c0,1.747-0.698,3.143-1.746,4.366l9.605,9.605c0.175-0.175,0.349-0.175,0.523-0.35
		L294.186,174.002z"/>
	<path d="M378.016,280.011c0,0.873-0.873,1.746-1.746,1.746s-1.571-0.698-1.571-1.397l-49.947-0.873
		c-0.35,1.397-1.396,2.445-2.969,2.445s-2.969-1.223-2.969-2.969c0-1.396,1.223-2.619,2.618-2.795l-1.396-32.657
		c-0.525-0.175-1.049-0.699-1.049-1.396c0-0.699,0.522-1.223,1.049-1.396l1.92-42.09c-1.746-0.35-2.969-1.746-2.969-3.493
		c0-1.921,1.397-3.493,3.145-3.668l-1.223-35.801c-1.224,0-2.096-1.048-2.096-2.271c0-1.222,1.047-2.271,2.27-2.271
		s2.271,0.874,2.271,2.096l46.105,0.698c0.174-1.571,1.572-2.969,3.318-2.969c1.92,0,3.317,1.572,3.317,3.318
		s-1.223,3.144-2.795,3.493l1.224,16.591c0.698,0.175,1.223,0.699,1.223,1.571c0,0.699-0.699,1.397-1.572,1.397
		c-0.522,0-1.223-0.524-1.396-1.048l-19.734,1.397c0,2.095-1.572,3.667-3.494,4.017l1.748,19.735c0.873,0,1.57,0.698,1.746,1.572
		l15.367,1.397c0.35-1.223,1.397-2.271,2.795-2.271c1.746,0,2.969,1.397,2.969,2.969c0,1.397-1.047,2.62-2.27,2.794l1.047,16.766
		c0.699,0,1.223,0.699,1.223,1.398c0,0.872-0.699,1.396-1.396,1.396c-0.699,0-1.224-0.35-1.398-1.049l-18.686,1.049
		c0,2.096-1.746,3.667-3.668,4.017l0.873,22.005c1.571,0,2.795,1.397,2.795,2.969l17.114,2.271c0.523-1.922,2.097-3.318,4.191-3.318
		c2.27,0,4.191,1.746,4.191,4.191c0,1.92-1.572,3.666-3.494,4.016l1.748,14.67C377.318,278.439,378.016,279.138,378.016,280.011z
		 M322.654,198.627l-1.922,42.264c0.35,0,0.524,0.174,0.698,0.35l17.115-9.082l-14.844-33.706
		C323.354,198.627,323.004,198.627,322.654,198.627z M320.732,243.511l1.223,32.657c0.35,0,0.525,0,0.699,0.176l7.336-16.068
		c-2.097-1.047-3.494-3.143-3.494-5.763c0-1.571,0.699-2.969,1.572-4.19l-6.986-6.986
		C321.082,243.336,320.908,243.511,320.732,243.511z M321.607,155.666l1.221,35.801c0.35,0,0.699,0.175,1.049,0.175l14.844-27.419
		c-0.522-0.524-0.873-1.048-0.873-1.746c0-0.175,0-0.524,0.177-0.699l-15.021-6.985
		C322.654,155.316,322.131,155.666,321.607,155.666z M321.781,242.114c0,0.35,0,0.522-0.174,0.698l6.983,7.161
		c1.224-1.049,2.619-1.747,4.191-1.747c1.049,0,2.096,0.349,2.795,0.698l5.938-10.129l-2.618-5.938l-17.115,8.906
		C321.781,241.939,321.781,241.939,321.781,242.114z M369.285,154.618l-45.933-0.699v0.175l14.845,7.16
		c0.522-0.698,1.049-1.047,1.922-1.047s1.572,0.523,1.92,1.397l27.42-6.811L369.285,154.618z M330.514,260.452l-7.16,16.066
		c0.175,0.175,0.351,0.35,0.523,0.35l23.227-18.861c-0.35-0.35-0.522-0.873-0.522-1.572l-7.51-0.873
		c-0.523,3.145-3.144,5.414-6.287,5.414C332.084,260.975,331.211,260.8,330.514,260.452z M324.227,198.104l15.021,33.706
		l5.588-2.969c-0.174-0.349-0.35-1.047-0.35-1.571c0-1.222,0.524-2.271,1.223-2.97l-21.131-26.196
		C324.4,198.104,324.4,198.104,324.227,198.104z M349.201,259.403c-0.699,0-1.224-0.35-1.748-0.873l-23.228,18.861
		c0.175,0.35,0.351,0.699,0.351,0.873l22.004-2.794c0-1.048,0.873-1.921,1.922-2.095L349.201,259.403z M325.273,192.864
		l19.909-13.273c-0.35-0.524-0.522-1.223-0.522-1.921c0-1.397,0.697-2.794,1.746-3.493l-5.59-9.78
		c-0.175,0.174-0.523,0.174-0.697,0.174c-0.351,0-0.523,0-0.699,0l-14.844,27.419C324.926,192.166,325.1,192.515,325.273,192.864z
		 M349.375,203.168v-0.174l-23.402-6.637c-0.35,0.524-0.522,0.873-0.873,1.223l21.132,26.371c0.698-0.524,1.571-0.698,2.271-0.698
		c0.174,0,0.174,0,0.174,0l1.922-18.338C349.898,204.74,349.375,204.041,349.375,203.168z M348.852,181.687
		c-1.397,0-2.444-0.524-3.317-1.572l-19.91,13.271c0.35,0.524,0.523,1.049,0.523,1.747c0,0.174,0,0.349,0,0.524l23.401,6.636
		c0.176-0.349,0.699-0.699,1.049-0.873L348.852,181.687z M326.322,278.789l45.231,0.874l-20.782-3.494
		c-0.351,0.873-1.048,1.398-2.097,1.398c-0.873,0-1.746-0.525-1.922-1.398L326.322,278.789z M348.152,253.815l-6.287-14.321
		l-5.588,9.78c1.746,1.049,2.969,3.144,2.969,5.239c0,0.175-0.176,0.35-0.176,0.35l7.684,0.873
		C346.93,254.863,347.453,254.164,348.152,253.815z M339.42,232.508l2.445,5.414l4.19-7.335c-0.35-0.35-0.698-0.699-0.873-1.048
		L339.42,232.508z M369.459,155.49l-27.244,6.811c0,0,0,0,0,0.175c0,0.698-0.35,1.222-0.699,1.746l5.589,9.605
		c0.524-0.174,1.049-0.35,1.747-0.35c1.048,0,1.921,0.35,2.793,1.048l18.515-17.988C369.809,156.189,369.633,155.84,369.459,155.49z
		 M349.201,253.465l-0.875-22.005c-0.697-0.175-1.224-0.35-1.572-0.524l-4.539,7.859l6.461,14.67
		C348.852,253.465,349.025,253.465,349.201,253.465z M352.693,257.133c-0.351,1.223-1.572,2.27-2.795,2.27l-0.697,13.973
		c0.348,0.174,0.871,0.349,1.047,0.697l20.084-12.574c-0.35-0.698-0.523-1.223-0.523-1.92c0-0.176,0-0.176,0-0.176L352.693,257.133z
		 M349.375,223.252c0.697,0.174,1.396,0.523,1.922,0.873l9.953-9.78l-9.08-9.604c-0.176,0.174-0.525,0.174-0.873,0.174
		L349.375,223.252z M374,263.594c-1.396,0-2.621-0.523-3.318-1.571l-19.909,12.573c0,0.35,0.176,0.525,0.176,0.874l23.75,3.843
		c0.176-0.35,0.524-0.699,1.049-0.874L374,263.594z M352.693,226.745l18.686-1.047c0-0.176,0-0.35,0.176-0.524l-9.78-10.304
		l-9.953,9.779C352.17,225.173,352.518,226.047,352.693,226.745z M373.824,174.527l-1.222-16.766c-0.698,0-1.397-0.349-2.098-0.873
		l-18.512,18.163c0.522,0.524,0.873,1.222,0.873,1.921l19.91-1.397C372.951,175.051,373.301,174.701,373.824,174.527z
		 M368.41,205.089l-15.543-1.396c0,0.174,0,0.349-0.174,0.524l9.08,9.605l7.161-6.986
		C368.586,206.312,368.41,205.788,368.41,205.089z M372.254,224.649l-1.049-16.59c-0.699-0.175-1.223-0.35-1.746-0.699l-7.16,6.986
		l9.779,10.479C372.078,224.649,372.254,224.649,372.254,224.649z"/>
	<path d="M471.625,280.884c0,0.873-0.699,1.572-1.572,1.572c-0.699,0-1.223-0.524-1.396-1.397l-20.783-1.396
		c-0.174,1.57-1.572,2.794-3.318,2.794c-1.92,0-3.491-1.572-3.491-3.493c0-1.396,0.873-2.619,1.92-3.144l-8.384-23.228
		c-0.174,0-0.174,0-0.35,0c-0.873,0-1.57-0.699-1.57-1.746c0-0.522,0.351-1.049,0.873-1.396l-8.559-26.022c-0.348,0-0.697,0-1.047,0
		l-2.795,28.991c1.746,0.35,2.969,1.746,2.969,3.667c0,1.922-1.223,3.318-3.144,3.668l1.224,17.988c1.047,0,1.92,1.048,1.92,2.096
		c0,1.223-1.047,2.271-2.271,2.271c-1.049,0-2.096-1.048-2.096-2.271l-12.399-2.096c-0.697,2.619-2.97,4.541-5.765,4.541
		c-3.317,0-5.938-2.619-5.938-5.938c0-2.969,2.444-5.414,5.414-5.764l-2.619-61.824c-1.396,0-2.621-1.223-2.621-2.794
		c0-1.397,1.225-2.62,2.445-2.794l-1.048-48.026c-0.872-0.175-1.397-0.874-1.397-1.747c0-1.047,0.699-1.921,1.748-1.921
		c1.047,0,1.746,0.699,1.746,1.747l17.987,1.746c0.351-1.746,1.921-3.143,4.019-3.143c2.094,0,3.842,1.746,3.842,4.017
		c0,1.572-0.873,2.969-2.096,3.493l19.733,51.345c0.175-0.174,0.351-0.174,0.351-0.174l2.793-52.568
		c-1.57-0.174-2.793-1.571-2.793-3.143c0-1.747,1.396-3.144,3.143-3.144s2.97,1.223,3.146,2.794h16.065
		c0.175-1.397,1.398-2.619,3.146-2.619c1.569,0,2.969,1.396,2.969,2.969c0,1.572-1.223,2.969-2.795,3.143V225
		c1.572,0.175,2.969,1.572,2.969,3.318c0,1.571-1.396,2.969-2.969,3.144l1.572,48.026
		C471.1,279.487,471.625,280.186,471.625,280.884z M403.34,179.417c0-1.921,1.047-3.494,2.619-4.192l-8.033-20.083l1.047,48.026
		c0.175,0,0.175,0,0.351,0l6.811-19.56C404.561,182.91,403.34,181.163,403.34,179.417z M417.311,155.84v-0.174l-17.987-1.747
		c-0.176,0.35-0.351,0.699-0.699,0.874l8.035,20.259c0.348-0.175,0.871-0.35,1.221-0.35c0.699,0,1.398,0.175,2.096,0.524
		l9.082-16.067C418.01,158.459,417.311,157.237,417.311,155.84z M405.609,241.241c0-0.699,0.35-1.397,1.049-1.747l-7.512-30.213
		l2.62,61.3c0.175,0,0.351,0,0.523,0l4.541-27.419C406.133,242.812,405.609,242.114,405.609,241.241z M415.738,229.54l-2.445-15.543
		l-12.225-6.462c-0.351,0.524-0.697,0.873-1.396,1.048l7.685,30.736h0.174c0.35,0,0.524,0,0.875,0.175L415.738,229.54z
		 M406.832,183.783l-6.811,19.734c0.35,0.175,0.696,0.35,1.047,0.699l9.778-5.414l-2.442-14.845c-0.177,0-0.351,0-0.525,0
		C407.529,183.958,407.182,183.783,406.832,183.783z M401.592,205.962c0,0.349,0,0.699-0.174,1.048l11.701,6.113l-2.271-13.623
		l-9.43,5.414C401.418,205.264,401.592,205.613,401.592,205.962z M417.66,258.53c-0.525-0.698-0.873-1.572-0.873-2.445
		c0-1.047,0.348-1.921,1.047-2.619l-9.256-10.479c-0.351,0.175-0.699,0.175-1.049,0.175l-4.715,27.594
		c1.049,0.175,1.745,0.524,2.444,1.222L417.66,258.53z M419.93,279.138c0.174-0.699,0.699-1.224,1.572-1.397l-1.223-17.988
		c-0.699,0-1.572-0.35-2.097-0.699l-12.399,13.273c1.049,1.049,1.572,2.445,1.572,4.018c0,0.349,0,0.523,0,0.697L419.93,279.138z
		 M419.58,252.417l-3.666-21.83l-6.986,9.256c0.351,0.35,0.523,0.874,0.523,1.397c0,0.523-0.174,0.873-0.351,1.223l9.259,10.652
		C418.707,252.767,419.057,252.592,419.58,252.417z M409.102,183.783l2.271,14.495l3.143-1.746l-5.237-12.749H409.102z
		 M420.803,192.166c0-0.524,0-0.873,0.351-1.223l-9.955-8.383c-0.351,0.35-0.697,0.699-1.224,0.874l5.066,12.749l5.762-3.318
		C420.803,192.689,420.803,192.34,420.803,192.166z M419.58,159.507l-9.08,16.067c1.223,0.874,2.096,2.27,2.096,3.842
		c0,0.873-0.35,1.921-0.873,2.619l9.779,8.383c0.35-0.174,0.699-0.349,1.047-0.524l-1.396-30.039
		C420.629,159.682,420.104,159.682,419.58,159.507z M413.816,213.472l6.637,3.493c0.35-0.524,1.049-1.047,1.572-1.397l-7.334-18.338
		l-3.146,1.921L413.816,213.472z M416.438,228.84l4.716-6.461c-0.873-0.699-1.396-1.922-1.396-3.145
		c0-0.523,0.174-1.048,0.349-1.572l-6.111-3.318L416.438,228.84z M423.422,215.218l-0.697-20.782
		c-0.522-0.175-1.049-0.525-1.571-0.874l-5.765,3.318l7.336,18.512C422.898,215.218,423.248,215.218,423.422,215.218z
		 M423.248,223.426c-0.523-0.174-1.047-0.35-1.572-0.697l-5.238,6.984l3.843,22.704h0.174L423.248,223.426z M422.375,159.682
		c-0.174,0-0.35,0-0.523,0l1.396,30.213c1.049,0.175,1.922,1.048,1.922,2.271c0,0.524-0.176,0.874-0.35,1.397l17.114,17.464
		c0.175,0,0.175-0.175,0.351-0.175L422.375,159.682z M427.789,217.663l13.273-4.366c0-0.174,0-0.349,0-0.524
		c0-0.524,0.174-0.874,0.522-1.222l-17.289-17.64c-0.176,0.175-0.524,0.35-0.875,0.35l0.699,20.957
		C425.693,215.218,427.09,216.266,427.789,217.663z M434.076,249.274c0.174,0,0.174,0,0.174,0c0.176,0,0.176,0,0.176,0l8.033-34.23
		c-0.523-0.35-0.873-0.699-1.223-1.223l-13.273,4.541c0,0.35,0.176,0.524,0.176,0.873c0,1.746-1.049,3.318-2.621,3.842
		L434.076,249.274z M435.648,249.973l12.397-6.287c-0.174-0.524-0.348-1.049-0.348-1.747c0-2.096,1.223-3.667,2.969-4.366
		l-6.986-22.529c0,0-0.176,0.174-0.35,0.174c0,0-0.174,0-0.174-0.174l-8.209,34.405
		C435.299,249.449,435.473,249.624,435.648,249.973z M443.682,275.645c0.351,0,0.523-0.175,0.873-0.175c0.174,0,0.351,0,0.523,0.175
		l6.113-29.165c-1.224-0.35-2.271-1.048-2.795-2.097l-12.574,6.113c0.176,0.174,0.176,0.35,0.176,0.35
		c0,0.698-0.35,1.223-0.875,1.396L443.682,275.645z M446.65,157.935l-2.795,52.743c0.176,0,0.35,0,0.35,0l12.924-23.228
		c-1.223-0.874-2.096-2.271-2.096-4.017c0-1.921,1.047-3.493,2.619-4.192l-10.304-21.481
		C447.174,157.935,446.824,157.935,446.65,157.935z M444.381,214.87l6.984,22.354c0.35,0,0.699,0,1.049,0c0.348,0,0.523,0,0.697,0
		l3.145-16.066l-11.178-6.812C444.904,214.52,444.729,214.694,444.381,214.87z M457.652,187.8l-12.748,23.228
		c0,0.174,0.174,0.349,0.35,0.524l13.621-7.685c0,0-0.174-0.174-0.174-0.35c0-0.698,0.522-1.222,1.223-1.397l-0.35-13.971
		C458.875,188.149,458.352,187.974,457.652,187.8z M445.604,212.773c0,0.35,0,0.699-0.176,1.048l11.002,6.636l3.146-15.543
		c-0.176-0.174-0.351-0.174-0.351-0.35l-13.621,7.685C445.604,212.424,445.604,212.599,445.604,212.773z M451.891,246.655
		l-6.112,29.165c0.522,0.175,1.047,0.524,1.396,1.048l12.226-11.701c-0.349-0.523-0.697-1.223-0.697-1.746
		c0-1.223,0.697-2.096,1.572-2.62l-6.287-14.32c-0.525,0.175-1.05,0.175-1.572,0.175
		C452.238,246.655,452.064,246.655,451.891,246.655z M448.047,278.963l20.609,1.572c0.174-0.35,0.348-0.699,0.522-0.873
		l-6.637-13.623c-0.35,0.175-0.523,0.175-0.873,0.175c-0.699,0-1.396-0.175-1.922-0.698l-12.225,11.875
		C447.873,277.915,448.047,278.439,448.047,278.963z M465.512,155.142h-16.065c0,1.048-0.523,1.921-1.398,2.445l10.131,21.307
		c0.523-0.175,1.047-0.175,1.57-0.175c0.525,0,0.875,0,1.223,0.175l6.463-21.132C466.385,157.237,465.686,156.364,465.512,155.142z
		 M455.906,238.621l9.778-8.558c-0.348-0.523-0.696-1.047-0.696-1.746c0-0.523,0.174-1.048,0.35-1.572l-8.383-5.239L453.81,237.4
		C454.51,237.573,455.209,237.922,455.906,238.621z M454.684,246.13l6.113,14.495c0.351-0.174,0.523-0.174,0.873-0.174h0.174
		l5.59-28.991c-0.522-0.175-0.873-0.524-1.397-0.873l-9.779,8.558c0.699,0.698,1.049,1.746,1.049,2.794
		C457.305,243.86,456.256,245.432,454.684,246.13z M457.129,220.807l8.557,5.414c0.351-0.523,0.875-0.873,1.398-1.048l-6.637-20.259
		c-0.174,0-0.174,0.174-0.174,0.174L457.129,220.807z M467.084,223.252l-6.637-35.104h-0.174l0.35,13.971
		c0.697,0.175,1.221,0.699,1.221,1.397c0,0.524-0.35,1.048-0.873,1.223L467.084,223.252z M468.131,224.649l0.176-66.714
		c-0.176,0-0.176,0-0.35,0l-6.287,21.132c1.746,0.698,2.795,2.445,2.795,4.366c0,2.096-1.397,4.017-3.317,4.541L468.131,224.649z
		 M464.465,263.42c0,0.873-0.524,1.92-1.223,2.27l6.461,13.623l-1.572-47.678v-0.175l-5.588,29.165
		C463.766,260.975,464.465,262.023,464.465,263.42z"/>
	<path d="M563.314,176.448c0,0.873-0.523,1.571-1.398,1.571c-0.697,0-1.221-0.524-1.396-1.048l-17.114,1.223
		c0,1.397-1.224,2.619-2.793,2.619l-1.398,21.132c2.445,0.349,4.191,2.445,4.191,5.064c0,2.445-1.746,4.541-4.191,4.89l1.572,23.751
		c1.396,0,2.619,1.398,2.619,2.97c0,1.397-1.047,2.62-2.445,2.794l1.398,37.898c0.698,0.174,1.047,0.698,1.047,1.396
		c0,0.873-0.523,1.397-1.396,1.397c-0.698,0-1.396-0.524-1.396-1.223l-19.562-3.144c-0.522,2.795-2.969,4.716-5.764,4.716
		c-3.318,0-5.938-2.62-5.938-5.938c0-2.969,2.271-5.414,5.238-5.763l-2.442-38.597c-1.572,0-2.796-1.223-2.796-2.795
		c0-1.57,1.224-2.793,2.619-2.969l0.177-24.973c-1.572,0-2.796-1.223-2.796-2.794c0-1.571,1.224-2.969,2.796-2.969l1.396-13.273
		c-2.445-0.524-4.191-2.445-4.191-4.89l-15.893-1.223c-0.176,1.048-1.049,1.747-2.096,1.747c-1.224,0-2.097-1.048-2.097-2.271
		c0-1.048,0.697-2.095,1.923-2.095l0.522-15.893c-1.397-0.174-2.445-1.397-2.445-2.969c0-1.572,1.224-2.794,2.796-2.794
		c1.569,0,2.793,1.048,2.969,2.62h31.26c0.176-1.397,1.398-2.445,2.969-2.445c1.572,0,2.795,1.222,2.795,2.62l22.529,0.698
		c0.35-2.271,2.096-4.017,4.365-4.017c2.444,0,4.367,1.921,4.367,4.366c0,2.095-1.398,3.842-3.318,4.366l2.096,14.845
		C562.791,175.225,563.314,175.749,563.314,176.448z M509.523,176.797c0.176-1.048,0.524-1.921,1.223-2.62l-16.766-16.94
		c-0.523,0.35-1.048,0.524-1.572,0.524l-0.523,15.893c0.873,0.174,1.572,0.873,1.746,1.921L509.523,176.797z M494.33,156.713
		l16.766,16.941c0.523-0.35,1.224-0.699,1.922-0.874l-2.444-10.653c-1.049,0-1.746-0.698-1.746-1.747c0,0,0,0,0-0.174l-13.974-4.192
		C494.68,156.189,494.506,156.539,494.33,156.713z M526.289,155.316l-31.26-0.174c0,0.174,0,0.174,0,0.174L509,159.682
		c0.35-0.698,0.873-1.048,1.572-1.048c0.696,0,1.223,0.35,1.571,1.048l14.146-4.192C526.289,155.49,526.289,155.49,526.289,155.316z
		 M516.684,173.13l10.654-15.893c-0.35-0.174-0.699-0.698-0.873-1.047l-14.146,4.017c0,0.174,0,0.174,0,0.174
		c0,0.699-0.523,1.397-1.05,1.572l2.271,10.653c0.35-0.175,0.523-0.175,0.873-0.175C515.287,172.431,515.986,172.78,516.684,173.13z
		 M512.842,201.422l-0.174,24.973c0.699,0.176,1.396,0.524,1.92,1.223l9.432-5.588c-0.174-0.524-0.174-1.049-0.174-1.572
		c0-1.047,0.349-1.921,1.224-2.619l-11.354-16.766C513.367,201.248,513.018,201.422,512.842,201.422z M514.238,182.386
		l-1.396,13.273c1.396,0.349,2.445,1.571,2.445,2.969c0,0.175-0.174,0.175-0.174,0.349l18.86,6.112
		c0.175-0.698,0.697-1.222,1.224-1.746l-17.814-21.831c-0.873,0.524-1.92,0.874-2.969,0.874
		C514.238,182.386,514.238,182.386,514.238,182.386z M515.287,270.755h0.176l1.92-19.909c-0.522-0.176-0.873-0.699-0.873-1.223
		c0-0.699,0.174-1.049,0.699-1.397l-4.367-15.718L515.287,270.755z M513.367,231.985l4.539,16.066c0,0,0,0,0.176,0l8.033-24.275
		c-0.699-0.174-1.224-0.699-1.746-1.223l-9.432,5.589c0.176,0.35,0.35,0.698,0.35,1.222
		C515.287,230.587,514.414,231.635,513.367,231.985z M533.451,207.01c0-0.524,0.174-0.873,0.174-1.222l-18.688-6.113
		c-0.175,0.349-0.351,0.873-0.699,1.047l11.354,16.766c0.523-0.349,1.047-0.524,1.746-0.524s1.396,0.175,1.92,0.698l5.764-7.16
		C534.148,209.63,533.451,208.407,533.451,207.01z M519.828,272.851l12.748-9.082c-0.351-0.349-0.351-0.873-0.351-1.397
		c0-0.523,0-1.047,0.351-1.396l-13.795-10.305c-0.176,0.176-0.351,0.176-0.699,0.35l-1.922,19.735
		C517.557,271.104,518.955,271.803,519.828,272.851z M537.643,177.496c0.175-0.873,0.697-1.572,1.396-1.921l-8.732-17.814
		c-0.35,0.174-0.698,0.174-1.049,0.174c-0.522,0-1.047,0-1.396-0.349l-10.479,15.892c1.049,0.874,1.746,2.096,1.922,3.493
		L537.643,177.496z M540.088,180.813c-1.397-0.174-2.271-1.222-2.445-2.619l-18.338-0.524c0,1.397-0.522,2.445-1.397,3.318
		l17.813,21.83c0.699-0.524,1.746-0.873,2.795-0.873L540.088,180.813z M538.516,236.35l-9.432-12.924
		c-0.523,0.35-1.223,0.524-1.746,0.524c-0.174,0-0.35,0-0.522,0l-8.209,24.45c0.176,0,0.35,0.174,0.35,0.174l18.861-9.081
		c-0.175-0.349-0.175-0.524-0.175-0.873C537.643,237.748,537.99,236.875,538.516,236.35z M535.371,259.579l4.19-18.338
		c-0.522-0.176-1.047-0.523-1.396-1.048l-18.861,9.081c0,0,0,0.175,0,0.35c0,0.174,0,0.35,0,0.523l13.621,10.305
		c0.525-0.525,1.398-1.049,2.096-1.049C535.197,259.403,535.371,259.579,535.371,259.579z M521.051,276.518c0,0.35,0,0.523,0,0.699
		l19.562,2.969c0.174-0.35,0.348-0.523,0.522-0.699l-5.414-14.32c-0.176,0.174-0.35,0.174-0.698,0.174
		c-0.873,0-1.57-0.348-2.097-0.872l-12.748,8.907C520.701,274.422,521.051,275.47,521.051,276.518z M540.088,235.651l-1.572-23.751
		c-1.049,0-2.096-0.349-2.971-0.873l-5.762,6.985c0.697,0.699,1.047,1.572,1.047,2.445c0,1.048-0.523,1.922-1.223,2.619L539.039,236
		C539.389,235.827,539.738,235.651,540.088,235.651z M541.834,175.399l3.143-5.239c-0.873-0.524-1.571-1.572-1.571-2.794
		c0-0.699,0.35-1.223,0.698-1.747l-12.399-8.907c-0.349,0.35-0.523,0.524-0.697,0.699l8.557,17.813
		c0.351-0.174,0.699-0.174,1.05-0.174C540.959,175.051,541.484,175.225,541.834,175.399z M554.582,156.014l-22.529-0.524
		c0,0.175,0,0.35-0.174,0.699l12.574,8.906c0.697-0.698,1.572-1.222,2.619-1.222c0.873,0,1.571,0.349,2.096,0.873l6.463-6.112
		C554.932,157.935,554.582,157.062,554.582,156.014z M537.99,262.372c0,1.223-0.697,2.097-1.57,2.621l5.238,13.621l-1.396-37.199
		l-4.19,18.338C537.117,260.102,537.99,261.15,537.99,262.372z M543.404,177.496l17.114-1.223v-0.174l-10.651-6.637
		c-0.699,0.874-1.746,1.397-2.795,1.397c-0.699,0-1.047,0-1.572-0.35l-3.143,5.239C542.881,176.099,543.23,176.797,543.404,177.496z
		 M559.297,160.206c-0.174,0-0.174,0-0.35,0c-1.047,0-2.097-0.35-2.969-1.048l-6.287,6.112c0.522,0.525,0.873,1.223,0.873,2.096
		c0,0.524-0.175,1.048-0.351,1.572l10.654,6.461c0.176,0,0.35-0.174,0.522-0.174L559.297,160.206z"/>
</g>
<g>
	<g>
		<path fill="none" stroke="#000000" stroke-width="4" stroke-miterlimit="10" d="M126.003,264.364c0,1.572-1.397,2.969-2.969,2.969
			c-0.874,0-1.572-0.348-2.096-0.873l-13.272,9.781c0.349,0.697,0.524,1.572,0.524,2.443c0,2.271-1.921,4.367-4.366,4.367
			c-2.096,0-4.017-1.746-4.192-3.842l-47.852,2.445c0,0.697-0.699,1.396-1.572,1.396s-1.746-0.699-1.746-1.746
			c0-0.873,0.698-1.396,1.397-1.572l1.222-28.117c-1.747-0.176-2.969-1.572-2.969-3.318s1.397-3.145,2.969-3.318l-0.174-43.137
			c-1.397-0.174-2.445-1.396-2.445-2.794c0-1.398,1.047-2.62,2.445-2.794l-0.175-38.422c-1.397-0.175-2.445-1.397-2.445-2.794
			c0-1.572,1.223-2.969,2.794-2.969c1.571,0,2.794,1.048,2.969,2.619l37.199-0.524c0.175-0.873,1.048-1.571,1.921-1.571
			c1.048,0,1.921,0.873,1.921,1.921c0,0.174,0,0.524-0.175,0.698l19.036,14.146c1.223-1.571,3.144-2.445,5.065-2.445
			c3.842,0,6.811,2.969,6.811,6.637c0,3.493-2.794,6.287-6.113,6.461l0.524,20.958c0.524,0.175,0.873,0.524,0.873,1.049
			c0,0.523-0.349,0.872-0.873,1.047l2.969,58.331C124.781,261.571,126.003,262.793,126.003,264.364z"/>
		<path fill="none" stroke="#000000" stroke-width="4" stroke-miterlimit="10" d="M91.948,177.217l-9.78-1.397
			c-0.349,1.222-1.397,2.27-2.794,2.445l0.699,37.374c1.222,0.175,2.445,1.397,2.445,2.793c0,1.398-1.048,2.445-2.445,2.621
			l0.698,39.295c1.223,0.174,2.271,0.873,2.794,1.92l7.859-3.316c0-0.176,0-0.35,0-0.35c0-1.049,0.699-1.748,1.571-1.922
			l2.096-49.948c-1.048-0.176-1.921-1.223-1.921-2.445c0-1.222,0.698-2.096,1.921-2.445l-1.747-23.053
			C92.647,178.614,92.123,178.09,91.948,177.217z"/>
		<path fill="none" stroke="#000000" stroke-width="4" stroke-miterlimit="10" d="M202.672,280.606c0,0.873-0.873,1.746-1.746,1.746
			c-0.874,0-1.572-0.697-1.572-1.396l-49.948-0.873c-0.35,1.396-1.397,2.445-2.969,2.445s-2.969-1.223-2.969-2.969
			c0-1.396,1.222-2.621,2.62-2.795l-1.397-32.658c-0.524-0.174-1.047-0.699-1.047-1.396c0-0.699,0.523-1.223,1.047-1.398
			l1.921-42.088c-1.746-0.35-2.969-1.746-2.969-3.493c0-1.921,1.397-3.493,3.144-3.668l-1.223-35.801
			c-1.222,0-2.096-1.048-2.096-2.271c0-1.223,1.048-2.271,2.271-2.271c1.223,0,2.27,0.874,2.27,2.096l46.106,0.698
			c0.175-1.571,1.571-2.969,3.318-2.969c1.921,0,3.318,1.572,3.318,3.318c0,1.746-1.223,3.144-2.795,3.493l1.224,16.591
			c0.698,0.175,1.222,0.699,1.222,1.571c0,0.699-0.698,1.397-1.571,1.397c-0.524,0-1.223-0.524-1.397-1.048l-19.734,1.397
			c0,2.095-1.572,3.667-3.493,4.017l1.747,19.735c0.873,0,1.571,0.698,1.746,1.571l15.368,1.397c0.35-1.223,1.397-2.271,2.795-2.271
			c1.746,0,2.969,1.396,2.969,2.969c0,1.397-1.048,2.62-2.271,2.795l1.048,16.766c0.698,0,1.223,0.699,1.223,1.396
			c0,0.873-0.699,1.396-1.397,1.396c-0.698,0-1.222-0.348-1.397-1.047l-18.687,1.047c0,2.098-1.746,3.668-3.668,4.018l0.874,22.006
			c1.571,0,2.794,1.396,2.794,2.969l17.115,2.27c0.523-1.92,2.096-3.318,4.191-3.318c2.271,0,4.191,1.748,4.191,4.193
			c0,1.92-1.572,3.666-3.493,4.016l1.747,14.67C201.974,279.034,202.672,279.733,202.672,280.606z"/>
		<path fill="none" stroke="#000000" stroke-width="4" stroke-miterlimit="10" d="M378.016,280.606c0,0.873-0.873,1.746-1.746,1.746
			s-1.571-0.697-1.571-1.396l-49.947-0.873c-0.35,1.396-1.396,2.445-2.969,2.445s-2.969-1.223-2.969-2.969
			c0-1.396,1.223-2.621,2.618-2.795l-1.396-32.658c-0.525-0.174-1.049-0.699-1.049-1.396c0-0.699,0.522-1.223,1.049-1.398
			l1.92-42.088c-1.746-0.35-2.969-1.746-2.969-3.493c0-1.921,1.397-3.493,3.145-3.668l-1.223-35.801
			c-1.224,0-2.096-1.048-2.096-2.271c0-1.223,1.047-2.271,2.27-2.271s2.271,0.874,2.271,2.096l46.105,0.698
			c0.174-1.571,1.572-2.969,3.318-2.969c1.92,0,3.317,1.572,3.317,3.318c0,1.746-1.223,3.144-2.795,3.493l1.224,16.591
			c0.698,0.175,1.223,0.699,1.223,1.571c0,0.699-0.699,1.397-1.572,1.397c-0.522,0-1.223-0.524-1.396-1.048l-19.734,1.397
			c0,2.095-1.572,3.667-3.494,4.017l1.748,19.735c0.873,0,1.57,0.698,1.746,1.571l15.367,1.397c0.35-1.223,1.397-2.271,2.795-2.271
			c1.746,0,2.969,1.396,2.969,2.969c0,1.397-1.047,2.62-2.27,2.795l1.047,16.766c0.699,0,1.223,0.699,1.223,1.396
			c0,0.873-0.699,1.396-1.396,1.396c-0.699,0-1.224-0.348-1.398-1.047l-18.686,1.047c0,2.098-1.746,3.668-3.668,4.018l0.873,22.006
			c1.571,0,2.795,1.396,2.795,2.969l17.114,2.27c0.523-1.92,2.097-3.318,4.191-3.318c2.27,0,4.191,1.748,4.191,4.193
			c0,1.92-1.572,3.666-3.494,4.016l1.748,14.67C377.318,279.034,378.016,279.733,378.016,280.606z"/>
		<path fill="none" stroke="#000000" stroke-width="4" stroke-miterlimit="10" d="M298.727,235.899l-1.049,24.973
			c0.699,0.174,1.398,0.873,1.398,1.746c0,1.223-0.875,2.096-1.922,2.096c-0.35,0-0.697-0.174-1.047-0.35l-11.352,11.527
			c0.523,0.523,0.872,1.223,0.872,2.096c0,1.746-1.571,3.318-3.317,3.318c-1.397,0-2.62-0.873-3.144-2.096l-17.814,4.715
			c0,0,0,0,0,0.176c0,1.047-0.872,1.92-1.921,1.92c-1.048,0-1.921-0.873-1.921-1.92c0-0.176,0-0.176,0-0.35l-18.163-5.588
			c-0.523,1.047-1.746,1.92-2.969,1.92c-1.746,0-3.318-1.396-3.318-3.145c0-1.047,0.524-1.92,1.397-2.619l-9.78-15.893
			c-0.35,0-0.523,0-0.873,0c-1.048,0-2.096-0.873-2.096-2.096c0-0.873,0.698-1.746,1.746-1.92l-1.746-34.406
			c-0.699,0-1.397-0.699-1.397-1.57c0-0.7,0.698-1.398,1.397-1.573l0.524-35.453c-1.048-0.174-1.922-1.222-1.922-2.27
			c0-1.223,1.048-2.271,2.271-2.271c0.175,0,0.35,0,0.524,0l4.54-10.478c-0.873-0.525-1.396-1.397-1.396-2.445
			c0-1.397,1.223-2.794,2.794-2.794c1.048,0,1.921,0.698,2.271,1.397l24.8-11.003c0-0.174-0.176-0.524-0.176-0.698
			c0-1.572,1.224-2.794,2.795-2.794c1.397,0,2.619,1.222,2.619,2.794l17.814,2.62c0.174-0.874,1.048-1.572,2.095-1.572
			c1.224,0,2.271,1.048,2.271,2.27c0,0.524-0.349,1.048-0.698,1.572l8.383,10.478c0.874-0.524,1.746-0.873,2.795-0.873
			c2.619,0,4.715,2.096,4.715,4.715c0,2.096-1.747,4.017-3.842,4.541l4.191,30.388c1.047,0,1.746,0.874,1.746,1.747
			c0,1.047-0.699,1.921-1.746,1.921c-1.049,0-1.748-0.699-1.922-1.572l-23.228-1.571c-0.349,1.746-1.921,3.144-3.667,3.144
			c-2.096,0-3.668-1.572-3.668-3.668c0-1.747,1.224-3.318,2.97-3.668l-1.572-24.624c-0.873-0.175-1.397-0.699-1.397-1.572
			c0-0.35,0-0.524,0.176-0.699l-4.891-4.541c-0.524,0.349-1.048,0.524-1.746,0.524c-0.524,0-0.874,0-1.223-0.175l-4.891,7.336
			c0.35,0.349,0.699,0.873,0.699,1.396c0,1.048-0.873,1.747-1.747,1.921l-2.095,26.895c2.095,0.35,3.842,2.271,3.842,4.541
			s-1.747,4.191-3.842,4.541l3.317,41.741c0.699,0,1.223,0.523,1.223,1.223c0,0.174-0.175,0.174-0.175,0.35l5.414,3.316
			c0.524-0.523,1.048-0.873,1.747-0.873c0.349,0,0.698,0.176,1.048,0.35l3.318-5.588c-0.35-0.35-0.524-0.873-0.524-1.223
			c0-0.873,0.698-1.572,1.396-1.746l0.176-20.957c-0.699-0.176-1.224-0.699-1.224-1.572s0.699-1.572,1.572-1.572
			s1.397,0.523,1.572,1.396l26.022,0.875c0.174-1.225,1.396-2.271,2.793-2.271c1.398,0,2.795,1.223,2.795,2.795
			C301.346,234.5,300.123,235.723,298.727,235.899z"/>
		<path fill="none" stroke="#000000" stroke-width="4" stroke-miterlimit="10" d="M471.625,281.479c0,0.873-0.699,1.572-1.572,1.572
			c-0.699,0-1.223-0.523-1.396-1.396l-20.783-1.398c-0.174,1.572-1.572,2.795-3.318,2.795c-1.92,0-3.491-1.572-3.491-3.492
			c0-1.396,0.873-2.621,1.92-3.145l-8.384-23.227c-0.174,0-0.174,0-0.35,0c-0.873,0-1.57-0.699-1.57-1.746
			c0-0.525,0.351-1.049,0.873-1.398l-8.559-26.021c-0.348,0-0.697,0-1.047,0l-2.795,28.99c1.746,0.35,2.969,1.746,2.969,3.668
			c0,1.922-1.223,3.318-3.144,3.668l1.224,17.988c1.047,0,1.92,1.047,1.92,2.096c0,1.223-1.047,2.27-2.271,2.27
			c-1.049,0-2.096-1.047-2.096-2.27l-12.399-2.096c-0.697,2.619-2.97,4.541-5.765,4.541c-3.317,0-5.938-2.621-5.938-5.939
			c0-2.969,2.444-5.412,5.414-5.762l-2.619-61.825c-1.396,0-2.621-1.223-2.621-2.795c0-1.396,1.225-2.619,2.445-2.794l-1.048-48.026
			c-0.872-0.175-1.397-0.874-1.397-1.747c0-1.048,0.699-1.921,1.748-1.921c1.047,0,1.746,0.699,1.746,1.747l17.987,1.746
			c0.351-1.746,1.921-3.143,4.019-3.143c2.094,0,3.842,1.746,3.842,4.017c0,1.572-0.873,2.969-2.096,3.493l19.733,51.345
			c0.175-0.175,0.351-0.175,0.351-0.175l2.793-52.568c-1.57-0.174-2.793-1.571-2.793-3.143c0-1.747,1.396-3.144,3.143-3.144
			s2.97,1.223,3.146,2.794h16.065c0.175-1.397,1.398-2.619,3.146-2.619c1.569,0,2.969,1.397,2.969,2.969
			c0,1.572-1.223,2.969-2.795,3.143v67.063c1.572,0.174,2.969,1.572,2.969,3.318c0,1.57-1.396,2.969-2.969,3.143l1.572,48.027
			C471.1,280.083,471.625,280.782,471.625,281.479z"/>
		<path fill="none" stroke="#000000" stroke-width="4" stroke-miterlimit="10" d="M563.314,177.043c0,0.873-0.523,1.571-1.398,1.571
			c-0.697,0-1.221-0.524-1.396-1.047l-17.114,1.222c0,1.397-1.224,2.619-2.793,2.619l-1.398,21.133
			c2.445,0.349,4.191,2.444,4.191,5.064c0,2.444-1.746,4.541-4.191,4.889l1.572,23.752c1.396,0,2.619,1.398,2.619,2.969
			c0,1.398-1.047,2.621-2.445,2.795l1.398,37.898c0.698,0.174,1.047,0.697,1.047,1.396c0,0.873-0.523,1.396-1.396,1.396
			c-0.698,0-1.396-0.523-1.396-1.223l-19.562-3.143c-0.522,2.795-2.969,4.715-5.764,4.715c-3.318,0-5.938-2.619-5.938-5.938
			c0-2.969,2.271-5.414,5.238-5.764l-2.442-38.596c-1.572,0-2.796-1.223-2.796-2.795c0-1.572,1.224-2.793,2.619-2.969l0.177-24.974
			c-1.572,0-2.796-1.223-2.796-2.794c0-1.572,1.224-2.969,2.796-2.969l1.396-13.273c-2.445-0.524-4.191-2.445-4.191-4.89
			l-15.893-1.223c-0.176,1.048-1.049,1.747-2.096,1.747c-1.224,0-2.097-1.047-2.097-2.271c0-1.048,0.697-2.095,1.923-2.095
			l0.522-15.893c-1.397-0.174-2.445-1.397-2.445-2.969c0-1.572,1.224-2.794,2.796-2.794c1.569,0,2.793,1.048,2.969,2.62h31.26
			c0.176-1.397,1.398-2.445,2.969-2.445c1.572,0,2.795,1.223,2.795,2.62l22.529,0.698c0.35-2.27,2.096-4.017,4.365-4.017
			c2.444,0,4.367,1.921,4.367,4.366c0,2.095-1.398,3.842-3.318,4.366l2.096,14.845C562.791,175.82,563.314,176.344,563.314,177.043z
			"/>
	</g>
</g>
</svg>
