<?xml version="1.0" encoding="utf-8"?>
<!-- Generator: Adobe Illustrator 22.0.1, SVG Export Plug-In . SVG Version: 6.00 Build 0)  -->
<svg version="1.1" id="Layer_1" xmlns="http://www.w3.org/2000/svg" xmlns:xlink="http://www.w3.org/1999/xlink" x="0px" y="0px"
	 viewBox="0 0 150 85" style="enable-background:new 0 0 150 85;" xml:space="preserve">
<style type="text/css">
	.st0{fill:#5E3261;}
	.st1{fill:#350037;stroke:#FFFFFF;stroke-width:2;stroke-linecap:round;stroke-linejoin:round;}
	.st2{fill:#866588;}
	.st3{fill:#FFFFFF;stroke:#FFFFFF;stroke-width:2;stroke-linecap:round;stroke-linejoin:round;}
	.st4{fill:none;stroke:url(#SVGID_1_);stroke-width:2;stroke-linecap:round;stroke-linejoin:round;}
	.st5{fill:none;stroke:#350037;stroke-width:2;stroke-linecap:round;stroke-linejoin:round;}
</style>
<g>
	<ellipse class="st0" cx="93.8" cy="16.7" rx="14.6" ry="14.6"/>
	<path class="st1" d="M63.9,31.3h65.4c1.5,0,2.8,1.2,2.8,2.8v36.1c0,1.5-1.2,2.8-2.8,2.8h-71c-1.5,0-2.8-1.2-2.8-2.8V39.6
		C55.5,35,59.3,31.3,63.9,31.3z"/>
	<g>
		<path class="st2" d="M28.4,42.4l10.4,16.4l-10.4,5.8l-10.4-5.8L28.4,42.4z"/>
		<path class="st2" d="M28.4,67.6l10.4-5.8L28.4,75.7L17.9,61.8L28.4,67.6z"/>
	</g>
	<ellipse class="st2" cx="85.4" cy="27.8" rx="14.6" ry="14.6"/>
	<ellipse class="st0" cx="93.8" cy="37.5" rx="14.6" ry="14.6"/>
	<ellipse class="st2" cx="82.7" cy="44.5" rx="14.6" ry="14.6"/>
	<path class="st3" d="M58.3,42.4h59.8c1.5,0,2.8,1.2,2.8,2.8v36.1c0,1.5-1.2,2.8-2.8,2.8H58.3c-1.5,0-2.8-1.2-2.8-2.8V45.1
		C55.5,43.6,56.8,42.4,58.3,42.4z"/>
	<g>
		
			<linearGradient id="SVGID_1_" gradientUnits="userSpaceOnUse" x1="-1252.8374" y1="400.5221" x2="-1252.8374" y2="399.4768" gradientTransform="matrix(-1 0 0 -13.281 -1164.2 5373.1274)">
			<stop  offset="0" style="stop-color:#350037;stop-opacity:0"/>
			<stop  offset="1" style="stop-color:#350037"/>
		</linearGradient>
		<path class="st4" d="M88.6,52.1v18.4"/>
		<path class="st5" d="M81.4,64.2l7.2,7.4l7.2-7.4"/>
	</g>
</g>
</svg>
