<svg width="55" height="55" viewBox="0 0 55 55" fill="none" xmlns="http://www.w3.org/2000/svg">
<path d="M53.2502 27.5C53.2502 41.7213 41.7215 53.25 27.5002 53.25V54.25C42.2738 54.25 54.2502 42.2736 54.2502 27.5H53.2502ZM1.75021 27.5C1.75021 13.2787 13.2789 1.75 27.5002 1.75V0.75C12.7266 0.75 0.750206 12.7264 0.750206 27.5H1.75021ZM27.5002 1.75C32.1177 1.75 36.45 2.96495 40.1963 5.09227L40.6901 4.22269C36.7972 2.01214 32.2953 0.75 27.5002 0.75V1.75ZM49.9079 14.8039C52.0353 18.5502 53.2502 22.8825 53.2502 27.5H54.2502C54.2502 22.7049 52.9881 18.203 50.7775 14.3101L49.9079 14.8039ZM5.09248 40.1961C2.96516 36.4498 1.75021 32.1175 1.75021 27.5H0.750206C0.750206 32.2951 2.01235 36.797 4.22289 40.6899L5.09248 40.1961ZM27.5002 53.25C22.8827 53.25 18.5504 52.035 14.8041 49.9077L14.3103 50.7773C18.2032 52.9879 22.7051 54.25 27.5002 54.25V53.25ZM1.17094 54.5358L54.5354 1.17136L53.8283 0.464257L0.463829 53.8287L1.17094 54.5358Z" fill="#828282"/>
</svg>
