<svg xmlns="http://www.w3.org/2000/svg" xmlns:xlink="http://www.w3.org/1999/xlink" viewBox="0 0 44 39.31"><defs><style>.cls-1{fill:url(#linear-gradient);}</style><linearGradient id="linear-gradient" x1="-644.18" y1="395.57" x2="-644.18" y2="394.82" gradientTransform="matrix(44, 0, 0, -39.31, 28365.46, 15561.55)" gradientUnits="userSpaceOnUse"><stop offset="0" stop-color="#fff"/><stop offset="1" stop-color="#fff" stop-opacity="0"/></linearGradient></defs><title>ether-delta</title><g id="Layer_2" data-name="Layer 2"><g id="Layer_1-2" data-name="Layer 1"><path class="cls-1" d="M24.39,39.26l-3-21L29.11,30.3l14.17-.78L24.39,39.26ZM15.94,17.87,31.63.9l-.9,4.52L18.44,18.23l.5,2.54Zm7.7,21-8.07-19,4.13,3.79,3.94,15.21Zm-10-16.09L9.8,20.67,20.66,0,21,4.73,12.28,20.32l1.38,2.42Zm-3.51-.07,4.67,2.44,7.76,13.62-12.43-16ZM9.93,2.14,11.3,6.61,7,24l2.13,1.77-4.7-.91ZM5.39,26.6l5.43,1.19L21.6,38.93ZM5,30.1H.68L0,7.18,2.53,11l.34,17.8L5,30.1ZM22.48,16.79,42.37,4.34,44,28l-14.14.77-7.38-12Zm-20.82,15,5.58-.3,13.3,7.84Z"/></g></g></svg>