<svg xmlns="http://www.w3.org/2000/svg" width="48" height="50" viewBox="0 0 48 50">
    <defs>
        <linearGradient id="a" x1="50%" x2="50%" y1="24.288%" y2="100%">
            <stop offset="0%" stop-color="#FFF"/>
            <stop offset="100%" stop-color="#FFF" stop-opacity="0"/>
        </linearGradient>
    </defs>
    <path fill="url(#a)" fill-rule="evenodd" d="M26.03 44.333l-2.967-21.047 7.69 12.093 14.171-.78-18.893 9.734zm-8.455-21.382l15.69-16.978-.9 4.52-12.284 12.815.5 2.536-3.006-2.893zm7.708 20.96l-8.078-19.007 4.132 3.792 3.946 15.214zm-9.986-16.09l-3.857-2.072L22.294 5.077l.302 4.73-8.674 15.585 1.375 2.428zm-3.51-.069l4.668 2.44 7.767 13.612-12.434-16.052zm-.222-20.534l1.377 4.47-4.275 17.427 2.137 1.776-4.707-.918 5.468-22.755zM7.03 31.68l5.427 1.187L23.242 44.01 7.03 31.68zm-.422 3.501H2.32l-.681-22.92 2.526 3.83.34 17.796 2.104 1.294zM24.115 21.87L44.008 9.414l1.63 23.657-14.137.77-7.386-11.972zM3.299 36.85l5.585-.301 13.299 7.843-18.884-7.542z"/>
</svg>
