<?xml version="1.0" encoding="utf-8"?>
<!-- Generator: Adobe Illustrator 22.0.1, SVG Export Plug-In . SVG Version: 6.00 Build 0)  -->
<svg version="1.1" xmlns="http://www.w3.org/2000/svg" xmlns:xlink="http://www.w3.org/1999/xlink" x="0px" y="0px"
	 viewBox="0 0 54.1 36" style="enable-background:new 0 0 54.1 36;" xml:space="preserve">
<style type="text/css">
	.st0{display:none;}
	.st1{display:inline;}
	.st2{fill:none;stroke:#FFFFFF;stroke-width:2;}
	.st3{fill:none;stroke:url(#SVGID_1_);stroke-width:2;stroke-linecap:round;stroke-linejoin:round;}
	.st4{fill:none;stroke:url(#SVGID_2_);stroke-width:2;stroke-linecap:round;stroke-linejoin:round;}
	.st5{fill:#FFFFFF;}
	.st6{opacity:0.4;fill:url(#SVGID_3_);enable-background:new    ;}
	.st7{opacity:0.4;fill:url(#SVGID_4_);enable-background:new    ;}
</style>
<g id="Layer_1" class="st0">
	<title>exchange</title>
	<g id="Layer_2_1_" class="st1">
		<g id="Layer_1-2">
			<circle class="st2" cx="36.1" cy="18" r="17"/>
			
				<linearGradient id="SVGID_1_" gradientUnits="userSpaceOnUse" x1="-2030.9399" y1="-131.2" x2="-2030.9399" y2="-130.27" gradientTransform="matrix(6.123234e-17 -1 -10 -6.123234e-16 -1273.9399 -2016.9399)">
				<stop  offset="0" style="stop-color:#FFFFFF"/>
				<stop  offset="1" style="stop-color:#FFFFFF;stop-opacity:0"/>
			</linearGradient>
			<path class="st3" d="M38.1,14h-10"/>
			
				<linearGradient id="SVGID_2_" gradientUnits="userSpaceOnUse" x1="-584.94" y1="87.1716" x2="-584.94" y2="88.0916" gradientTransform="matrix(6.123234e-17 1 15.05 -9.215468e-16 -1278.63 607.11)">
				<stop  offset="0" style="stop-color:#FFFFFF"/>
				<stop  offset="1" style="stop-color:#FFFFFF;stop-opacity:0"/>
			</linearGradient>
			<path class="st4" d="M32.6,22.2h15"/>
			<path class="st5" d="M36.1,0c-9.9,0-18,8.1-18,18s8.1,18,18,18s18-8.1,18-18S46,0,36.1,0z M30.8,18.7c-0.2,0.2-0.4,0.3-0.7,0.3
				c-0.3,0-0.5-0.1-0.7-0.3l-4-4c-0.4-0.4-0.4-1,0-1.4l4-4c0.4-0.4,1.1-0.3,1.4,0.1c0.3,0.4,0.3,0.9,0,1.3L28.5,13H38
				c0.6,0,1,0.4,1,1s-0.4,1-1,1h-9.6l2.3,2.3C31.1,17.7,31.1,18.3,30.8,18.7z M43.2,28.6c-0.2,0.2-0.4,0.3-0.7,0.3
				c-0.3,0-0.5-0.1-0.7-0.3c-0.4-0.4-0.4-1,0-1.4c0,0,0,0,0,0l4.3-3.9H32.5c-0.6,0-1-0.4-1-1s0.4-1,1-1H46l-4.2-4
				c-0.4-0.3-0.5-1-0.1-1.4s1-0.5,1.4-0.1c0,0,0.1,0.1,0.1,0.1l6,5.7c0.2,0.2,0.3,0.5,0.3,0.7c0,0.3-0.1,0.5-0.3,0.7L43.2,28.6z"/>
			
				<linearGradient id="SVGID_3_" gradientUnits="userSpaceOnUse" x1="13.4826" y1="2" x2="13.4826" y2="38.0029" gradientTransform="matrix(1 0 0 -1 0 38)">
				<stop  offset="0" style="stop-color:#FFFFFF"/>
				<stop  offset="1" style="stop-color:#FFFFFF;stop-opacity:0"/>
			</linearGradient>
			<path class="st6" d="M18,18c0-6.4,3.4-12.4,9-15.6C18.4-2.6,7.4,0.4,2.4,9S0.3,28.6,8.9,33.6c2.8,1.6,5.9,2.4,9.1,2.4
				c3.2,0,6.3-0.8,9-2.4C21.4,30.4,18,24.4,18,18z"/>
		</g>
	</g>
</g>
<g id="Layer_2">
	<path class="st5" d="M36.1,0c-9.9,0-18,8.1-18,18s8.1,18,18,18s18-8.1,18-18S46,0,36.1,0z M30.8,18.7c-0.2,0.2-0.4,0.3-0.7,0.3
		c-0.3,0-0.5-0.1-0.7-0.3l-4-4c-0.4-0.4-0.4-1,0-1.4l4-4c0.4-0.4,1.1-0.3,1.4,0.1c0.3,0.4,0.3,0.9,0,1.3L28.5,13H38c0.6,0,1,0.4,1,1
		s-0.4,1-1,1h-9.6l2.3,2.3C31.1,17.7,31.1,18.3,30.8,18.7z M43.2,28.6c-0.2,0.2-0.4,0.3-0.7,0.3c-0.3,0-0.5-0.1-0.7-0.3
		c-0.4-0.4-0.4-1,0-1.4c0,0,0,0,0,0l4.3-3.9H32.5c-0.6,0-1-0.4-1-1s0.4-1,1-1H46l-4.2-4c-0.4-0.3-0.5-1-0.1-1.4s1-0.5,1.4-0.1
		c0,0,0.1,0.1,0.1,0.1l6,5.7c0.2,0.2,0.3,0.5,0.3,0.7c0,0.3-0.1,0.5-0.3,0.7L43.2,28.6z"/>
	
		<linearGradient id="SVGID_4_" gradientUnits="userSpaceOnUse" x1="13.4826" y1="1.9985" x2="13.4826" y2="38.0015" gradientTransform="matrix(1 0 0 -1 0 38)">
		<stop  offset="0" style="stop-color:#FFFFFF"/>
		<stop  offset="1" style="stop-color:#FFFFFF;stop-opacity:0"/>
	</linearGradient>
	<path class="st7" d="M18,18c0-6.4,3.4-12.4,9-15.6C18.4-2.6,7.4,0.4,2.4,9S0.3,28.6,8.9,33.6c2.8,1.6,5.9,2.4,9.1,2.4
		c3.2,0,6.3-0.8,9-2.4C21.4,30.4,18,24.4,18,18z"/>
</g>
</svg>
