<?xml version="1.0" encoding="utf-8"?>
<!-- Generator: Adobe Illustrator 22.0.1, SVG Export Plug-In . SVG Version: 6.00 Build 0)  -->
<svg version="1.1" id="Layer_1" xmlns="http://www.w3.org/2000/svg" xmlns:xlink="http://www.w3.org/1999/xlink" x="0px" y="0px"
	 viewBox="0 0 150 150" style="enable-background:new 0 0 150 150;" xml:space="preserve">
<style type="text/css">
	.st0{opacity:0.2;fill:#FFFFFF;enable-background:new    ;}
	.st1{opacity:0.25;fill:#FFFFFF;enable-background:new    ;}
	.st2{fill:#FFFFFF;}
	.st3{fill:none;stroke:url(#SVGID_1_);stroke-width:2;stroke-linecap:round;stroke-linejoin:round;}
	.st4{fill:none;stroke:#350037;stroke-width:2;stroke-linecap:round;stroke-linejoin:round;}
	.st5{opacity:0.4;}
</style>
<g>
	<g transform="matrix(0 1 1 0 4 18)">
		<circle class="st0" cx="109.4" cy="21.9" r="18.1"/>
		<circle class="st1" cx="109.4" cy="31" r="18.1"/>
	</g>
	<g transform="matrix(-1 0 0 1 55 6)">
		<circle class="st0" cx="-11.7" cy="103.3" r="18.1"/>
		<circle class="st1" cx="-11.7" cy="112.4" r="18.1"/>
	</g>
	<path class="st2" d="M99.9,104.8H35c-1.7,0-3,1.4-3,3v39.3c0,1.7,1.4,3,3,3h64.9c1.7,0,3-1.4,3-3v-39.3
		C102.9,106.1,101.6,104.8,99.9,104.8z"/>
	<g>
		
			<linearGradient id="SVGID_1_" gradientUnits="userSpaceOnUse" x1="-555.7219" y1="507.1826" x2="-555.7219" y2="506.0994" gradientTransform="matrix(4.821435e-16 7.874 13.281 -8.132268e-16 -6658.6196 4496.7803)">
			<stop  offset="0" style="stop-color:#350037;stop-opacity:0"/>
			<stop  offset="1" style="stop-color:#350037"/>
		</linearGradient>
		<path class="st3" d="M79.5,115.1V127H59.5"/>
		<path class="st4" d="M66.3,134.8l-8-7.8l8-7.9"/>
	</g>
	<g class="st5">
		<path class="st2" d="M130.9,107.8l11.3,17.8l-11.3,6.3l-11.3-6.3L130.9,107.8z M130.3,135.3l11.9-6.3L130.3,144l-0.1-0.4v-8.2
			L130.3,135.3z M130.1,144l-10.6-15.1l10.6,6.3V144z"/>
	</g>
</g>
</svg>
