<svg xmlns="http://www.w3.org/2000/svg" xmlns:xlink="http://www.w3.org/1999/xlink" viewBox="0 0 36 41"><defs><style>.cls-1,.cls-2,.cls-3,.cls-4{fill:none;stroke-linecap:round;stroke-width:2px;}.cls-1,.cls-2,.cls-3{stroke-linejoin:round;}.cls-1{stroke:url(#linear-gradient);}.cls-2{stroke:url(#linear-gradient-2);}.cls-3{stroke:url(#linear-gradient-3);}.cls-4{stroke:#fff;}</style><linearGradient id="linear-gradient" x1="-603.23" y1="387.11" x2="-603.23" y2="386.19" gradientTransform="matrix(11, 0, 0, -18, 6642, 6969)" gradientUnits="userSpaceOnUse"><stop offset="0" stop-color="#fff" stop-opacity="0"/><stop offset="1" stop-color="#fff"/></linearGradient><linearGradient id="linear-gradient-2" x1="-603.23" y1="387.11" x2="-603.23" y2="386.19" gradientTransform="matrix(11, 0, 0, -18, 6642, 6990)" xlink:href="#linear-gradient"/><linearGradient id="linear-gradient-3" x1="-696.05" y1="372.11" x2="-696.05" y2="371.18" gradientTransform="matrix(0, -11, -19, 0, 7086, -7622)" xlink:href="#linear-gradient"/></defs><title>premium</title><g id="Layer_2" data-name="Layer 2"><g id="Layer_1-2" data-name="Layer 1"><path class="cls-1" d="M6.5,1h0A5.5,5.5,0,0,1,12,6.5v7A5.5,5.5,0,0,1,6.5,19h0A5.5,5.5,0,0,1,1,13.5v-7A5.5,5.5,0,0,1,6.5,1Z"/><path class="cls-2" d="M6.5,22h0A5.5,5.5,0,0,1,12,27.5v7A5.5,5.5,0,0,1,6.5,40h0A5.5,5.5,0,0,1,1,34.5v-7A5.5,5.5,0,0,1,6.5,22Z"/><path class="cls-3" d="M16,34.5h0A5.5,5.5,0,0,1,21.5,29h8A5.5,5.5,0,0,1,35,34.5h0A5.5,5.5,0,0,1,29.5,40h-8A5.5,5.5,0,0,1,16,34.5Z"/><path class="cls-4" d="M6.5,16.5V25M10,34h9"/></g></g></svg>