<svg xmlns="http://www.w3.org/2000/svg" width="100" height="95" viewBox="0 0 100 95">
    <defs>
        <radialGradient id="a" cy="-97.295%" r="147.295%" fx="50%" fy="-97.295%" gradientTransform="matrix(0 .97087 -1 0 -.473 -1.458)">
            <stop offset="0%" stop-color="#F00"/>
            <stop offset="100%" stop-color="#EF0" stop-opacity="0"/>
        </radialGradient>
        <linearGradient id="b" x1="50%" x2="50%" y1="32.207%" y2="149.759%">
            <stop offset="0%" stop-color="#FFAD00" stop-opacity=".519"/>
            <stop offset="100%" stop-color="#C500FF" stop-opacity="0"/>
        </linearGradient>
        <linearGradient id="c" x1="50%" x2="50%" y1="32.207%" y2="100%">
            <stop offset="0%" stop-color="#FFAD00" stop-opacity=".519"/>
            <stop offset="100%" stop-color="#C500FF" stop-opacity="0"/>
        </linearGradient>
        <linearGradient id="d" x1="50%" x2="50%" y1="32.207%" y2="110.555%">
            <stop offset="0%" stop-color="#FFAD00"/>
            <stop offset="100%" stop-color="#FFAD00" stop-opacity=".53"/>
        </linearGradient>
    </defs>
    <g fill="none" fill-rule="evenodd">
        <ellipse cx="50" cy="51.5" fill="url(#a)" rx="50" ry="51.5"/>
        <ellipse cx="50" cy="51.5" fill="url(#a)" opacity=".993" rx="50" ry="51.5"/>
        <path fill="url(#b)" d="M64.718 76.199c-4.183 4.363-9.233 8.114-15.016 11.153-5.784-3.042-10.835-6.792-15.016-11.153-15.56-16.225-15.022-36.599-13.682-46.11 5.79-.255 25.041-6.679 28.7-9.089 3.658 2.41 22.907 8.834 28.7 9.089 1.337 9.511 1.874 29.885-13.686 46.11"/>
        <path fill="url(#c)" d="M64.718 84.199c-4.183 4.363-9.233 8.114-15.016 11.153-5.784-3.042-10.835-6.792-15.016-11.153-15.56-16.225-15.022-36.599-13.682-46.11 5.79-.255 25.041-6.679 28.7-9.089 3.658 2.41 22.907 8.834 28.7 9.089 1.337 9.511 1.874 29.885-13.686 46.11"/>
        <path fill="url(#d)" d="M64.718 70.199c-4.183 4.363-9.233 8.114-15.016 11.153-5.784-3.042-10.835-6.792-15.016-11.153-15.56-16.225-15.022-36.599-13.682-46.11 5.79-.255 25.041-6.679 28.7-9.089 3.658 2.41 22.907 8.834 28.7 9.089 1.337 9.511 1.874 29.885-13.686 46.11"/>
    </g>
</svg>
