<svg xmlns="http://www.w3.org/2000/svg" width="38" height="38" viewBox="0 0 38 38">
    <g fill="none" fill-rule="nonzero">
        <path fill="#FFFFFF" d="M15.76 17.35l5.032-1.685 1.629 4.861-5.033 1.686z"/>
        <path fill="#FFFFFF" d="M36.371 13.722C32.481.754 26.871-2.262 13.903 1.63.935 5.519-2.08 11.129 1.81 24.097 5.7 37.065 11.31 40.08 24.278 36.19c12.968-3.89 15.984-9.5 12.093-22.468zm-6.544 8.415l-2.443.814.845 2.533c.331 1.026-.212 2.141-1.237 2.473-.211.06-.452.12-.663.09-.785-.03-1.539-.542-1.81-1.326l-.844-2.534-5.037 1.69.845 2.533c.331 1.025-.212 2.14-1.237 2.473-.211.06-.452.12-.663.09-.785-.03-1.539-.543-1.81-1.327l-.844-2.533-2.443.814c-.211.06-.453.12-.664.09-.784-.03-1.538-.542-1.81-1.327-.331-1.025.212-2.14 1.237-2.473l2.443-.814-1.629-4.855-2.442.814c-.211.06-.453.12-.664.09-.784-.03-1.538-.542-1.81-1.327-.331-1.025.212-2.14 1.237-2.473l2.443-.814-.844-2.533c-.332-1.026.21-2.142 1.236-2.473 1.025-.332 2.141.21 2.473 1.236l.845 2.534 5.036-1.69-.844-2.533c-.332-1.025.21-2.14 1.236-2.473 1.025-.331 2.141.211 2.473 1.237l.845 2.533 2.442-.814c1.026-.332 2.142.211 2.473 1.236.332 1.026-.21 2.142-1.236 2.473l-2.443.815 1.629 4.855 2.442-.814c1.026-.332 2.142.211 2.473 1.236.332 1.026-.21 2.142-1.236 2.474z"/>
    </g>
</svg>
