<?xml version="1.0" encoding="utf-8"?>
<!-- Generator: Adobe Illustrator 22.0.1, SVG Export Plug-In . SVG Version: 6.00 Build 0)  -->
<svg version="1.1" id="Layer_1" xmlns="http://www.w3.org/2000/svg" xmlns:xlink="http://www.w3.org/1999/xlink" x="0px" y="0px"
	 viewBox="0 0 150 85" style="enable-background:new 0 0 150 85;" xml:space="preserve">
<style type="text/css">
	.st0{fill:#350037;stroke:#FFFFFF;stroke-width:2;stroke-linecap:round;stroke-linejoin:round;}
	.st1{fill:#866588;}
	.st2{fill:#5E3261;}
	.st3{opacity:0.4;fill:#FFFFFF;enable-background:new    ;}
	.st4{fill:#FFFFFF;stroke:#FFFFFF;stroke-width:2;stroke-linecap:round;stroke-linejoin:round;}
	.st5{fill:none;stroke:url(#SVGID_1_);stroke-width:2;stroke-linecap:round;stroke-linejoin:round;}
	.st6{fill:none;stroke:#350037;stroke-width:2;stroke-linecap:round;stroke-linejoin:round;}
</style>
<g>
	<path class="st0" d="M58.6,30.6h66.1c1.6,0,2.8,1.3,2.8,2.8V70c0,1.6-1.3,2.8-2.8,2.8H53c-1.6,0-2.8-1.3-2.8-2.8V39
		C50.2,34.4,54,30.6,58.6,30.6z"/>
	<g transform="translate(42)">
		<circle class="st1" cx="31.4" cy="25.7" r="14.8"/>
		<circle class="st2" cx="93.3" cy="58" r="14.8"/>
		<circle class="st1" cx="76.4" cy="52.4" r="14.8"/>
		<circle class="st2" cx="41.2" cy="38.3" r="14.8"/>
	</g>
	<path class="st3" d="M13,64.7H4.6L2.7,70H0l7.6-20h2.3l7.6,20h-2.7L13,64.7L13,64.7z M5.4,62.6h6.8l-3.4-9.3L5.4,62.6L5.4,62.6z
		 M29.6,62.5h-5.3c0,1.8,0.5,3.2,1.3,4.1c0.8,1,2,1.4,3.5,1.4c1,0,2-0.2,3-0.5l0.3,2.2c-1.1,0.3-2.2,0.4-3.3,0.4
		c-2.3,0-4.1-0.7-5.4-2c-1.3-1.3-2-3.2-2-5.7h-2.4v-1.7h2.4V59h-2.4v-1.7h2.4c0.1-2.4,0.8-4.3,2.1-5.6c1.3-1.3,3.1-2,5.3-2
		c1,0,2.1,0.1,3.3,0.4l-0.3,2.2c-1-0.3-2-0.5-3-0.5c-1.5,0-2.7,0.5-3.5,1.4c-0.8,0.9-1.2,2.3-1.3,4h5.3V59h-5.3v1.9h5.3V62.5z"/>
	<path class="st4" d="M53,41.8h60.4c1.6,0,2.8,1.3,2.8,2.8v36.5c0,1.6-1.3,2.8-2.8,2.8H53c-1.6,0-2.8-1.3-2.8-2.8V44.7
		C50.2,43.1,51.5,41.8,53,41.8z"/>
	<g>
		
			<linearGradient id="SVGID_1_" gradientUnits="userSpaceOnUse" x1="-241.3901" y1="380.0641" x2="-241.3901" y2="379.0131" gradientTransform="matrix(0 1 -13.281 0 5122.1274 303.2)">
			<stop  offset="0" style="stop-color:#350037;stop-opacity:0"/>
			<stop  offset="1" style="stop-color:#350037"/>
		</linearGradient>
		<path class="st5" d="M72.7,61.8h18.7"/>
		<path class="st6" d="M85,69.1l7.5-7.3L85,54.5"/>
	</g>
</g>
</svg>
