<?xml version="1.0" encoding="utf-8"?>
<!-- Generator: Adobe Illustrator 22.0.1, SVG Export Plug-In . SVG Version: 6.00 Build 0)  -->
<svg version="1.1" id="Layer_1" xmlns="http://www.w3.org/2000/svg" xmlns:xlink="http://www.w3.org/1999/xlink" x="0px" y="0px"
	 viewBox="0 0 150 150" style="enable-background:new 0 0 150 150;" xml:space="preserve">
<style type="text/css">
	.st0{opacity:0.2;fill:#FFFFFF;enable-background:new    ;}
	.st1{opacity:0.25;fill:#FFFFFF;enable-background:new    ;}
	.st2{fill:#FFFFFF;}
	.st3{fill:none;stroke:url(#SVGID_1_);stroke-width:2;stroke-linecap:round;stroke-linejoin:round;}
	.st4{fill:none;stroke:#350037;stroke-width:2;stroke-linecap:round;stroke-linejoin:round;}
	.st5{opacity:0.4;fill:#FFFFFF;enable-background:new    ;}
</style>
<title>spend-euro</title>
<g id="Layer_2_1_">
	<g id="Layer_1-2">
		<circle class="st0" cx="77" cy="127.4" r="18.1"/>
		<circle class="st1" cx="67.9" cy="127.4" r="18.1"/>
		<path class="st2" d="M3,104.7h64.9c1.7,0,3,1.4,3,3V147c0,1.7-1.4,3-3,3H3c-1.7,0-3-1.4-3-3v-39.3C0,106.1,1.4,104.7,3,104.7z"/>
		
			<linearGradient id="SVGID_1_" gradientUnits="userSpaceOnUse" x1="-450.7151" y1="154.6118" x2="-450.7151" y2="155.6881" gradientTransform="matrix(6.123234e-17 1 13.28 -8.131655e-16 -2026.3397 576.86)">
			<stop  offset="0" style="stop-color:#350037;stop-opacity:0"/>
			<stop  offset="1" style="stop-color:#350037"/>
		</linearGradient>
		<path class="st3" d="M24.2,126.1h20.1"/>
		<path class="st4" d="M37.4,134l8-7.9l-8-7.9"/>
		<path class="st5" d="M129.1,132.3H120l-1.9,5.6h-2.9l8.2-21.5h2.5l8.2,21.5h-2.9L129.1,132.3z M121,130h7.3l-3.7-10
			C124.6,120,121,130,121,130z M147,130h-5.7c-0.1,1.6,0.4,3.2,1.4,4.4c1,1,2.3,1.6,3.8,1.5c1.1,0,2.2-0.2,3.2-0.5l0.3,2.4
			c-1.2,0.3-2.3,0.4-3.5,0.4c-2.1,0.1-4.2-0.7-5.8-2.2c-1.5-1.7-2.3-3.8-2.2-6h-2.6v-1.9h2.6v-2h-2.6v-1.8h2.6
			c-0.1-2.2,0.7-4.4,2.2-6c1.5-1.5,3.6-2.3,5.7-2.1c1.2,0,2.4,0.2,3.5,0.5l-0.3,2.4c-1-0.3-2.1-0.5-3.2-0.5
			c-1.4-0.1-2.8,0.5-3.7,1.5c-1,1.2-1.5,2.8-1.4,4.3h5.6v1.8h-5.7v2h5.7V130z"/>
	</g>
</g>
</svg>
