<svg xmlns="http://www.w3.org/2000/svg" xmlns:xlink="http://www.w3.org/1999/xlink" width="48" height="50" viewBox="0 0 48 50">
    <defs>
        <circle id="a" cx="5" cy="32" r="7"/>
        <circle id="b" cx="43" cy="17" r="7"/>
        <linearGradient id="c" x1="50%" x2="50%" y1="0%" y2="100%">
            <stop offset="0%" stop-color="#FFF"/>
            <stop offset="100%" stop-color="#FFF" stop-opacity="0"/>
        </linearGradient>
    </defs>
    <g fill="none" fill-rule="evenodd">
        <g stroke-linecap="round" stroke-linejoin="round" stroke-width="2">
            <path d="M5 22.238V9.672h25.052"/>
            <path stroke="#FFF" d="M24.917 15.344l6.02-5.672L24.918 4"/>
            <g>
                <path d="M43 26.762v12.566H17.948"/>
                <path stroke="#FFF" d="M23.083 33.656l-6.02 5.672L23.082 45"/>
            </g>
        </g>
        <use fill="#FFF" xlink:href="#a"/>
        <circle cx="5" cy="32" r="6" stroke="#FFF" stroke-width="2"/>
        <use fill="#FFF" xlink:href="#b"/>
        <circle cx="43" cy="17" r="6" stroke="#FFF" stroke-width="2"/>
        <circle cx="5" cy="37" r="7" fill="url(#c)" opacity=".4" transform="matrix(1 0 0 -1 0 74)"/>
        <circle cx="5" cy="41" r="7" fill="url(#c)" opacity=".2" transform="matrix(1 0 0 -1 0 82)"/>
        <circle cx="43" cy="12" r="7" fill="url(#c)" opacity=".4"/>
        <circle cx="43" cy="7" r="7" fill="url(#c)" opacity=".2"/>
    </g>
</svg>
